<mxfile host="Electron" modified="2024-07-04T03:10:10.231Z" agent="Mozilla/5.0 (Windows NT 10.0; Win64; x64) AppleWebKit/537.36 (KHTML, like Gecko) draw.io/21.4.0 Chrome/112.0.5615.204 Electron/24.5.1 Safari/537.36" etag="E9w4fyyOFpu8jiZ1ZbMe" version="21.4.0" type="device">
  <diagram name="Page-1" id="9f46799a-70d6-7492-0946-bef42562c5a5">
    <mxGraphModel dx="2222" dy="1397" grid="1" gridSize="10" guides="1" tooltips="1" connect="1" arrows="1" fold="1" page="1" pageScale="1" pageWidth="1100" pageHeight="850" background="none" math="0" shadow="0">
      <root>
        <mxCell id="0" />
        <mxCell id="1" parent="0" />
        <mxCell id="zQ7XzDFX-CdMLgZaWSg_-17" value="struct lldpd" style="swimlane;html=1;fontStyle=1;align=center;verticalAlign=top;childLayout=stackLayout;horizontal=1;startSize=26;horizontalStack=0;resizeParent=1;resizeLast=0;collapsible=1;marginBottom=0;swimlaneFillColor=#ffffff;rounded=0;shadow=0;comic=0;labelBackgroundColor=none;strokeWidth=1;fillColor=none;fontFamily=Verdana;fontSize=12" parent="1" vertex="1">
          <mxGeometry x="1360" width="260" height="450" as="geometry" />
        </mxCell>
        <mxCell id="zQ7XzDFX-CdMLgZaWSg_-18" value="g_sock: int" style="text;html=1;strokeColor=none;fillColor=none;align=left;verticalAlign=top;spacingLeft=4;spacingRight=4;whiteSpace=wrap;overflow=hidden;rotatable=0;points=[[0,0.5],[1,0.5]];portConstraint=eastwest;" parent="zQ7XzDFX-CdMLgZaWSg_-17" vertex="1">
          <mxGeometry y="26" width="260" height="26" as="geometry" />
        </mxCell>
        <mxCell id="zQ7XzDFX-CdMLgZaWSg_-19" value="g_base: struct event_base *" style="text;html=1;strokeColor=none;fillColor=none;align=left;verticalAlign=top;spacingLeft=4;spacingRight=4;whiteSpace=wrap;overflow=hidden;rotatable=0;points=[[0,0.5],[1,0.5]];portConstraint=eastwest;" parent="zQ7XzDFX-CdMLgZaWSg_-17" vertex="1">
          <mxGeometry y="52" width="260" height="26" as="geometry" />
        </mxCell>
        <mxCell id="zQ7XzDFX-CdMLgZaWSg_-20" value="g_config: struct lldpd_config" style="text;html=1;strokeColor=none;fillColor=none;align=left;verticalAlign=top;spacingLeft=4;spacingRight=4;whiteSpace=wrap;overflow=hidden;rotatable=0;points=[[0,0.5],[1,0.5]];portConstraint=eastwest;" parent="zQ7XzDFX-CdMLgZaWSg_-17" vertex="1">
          <mxGeometry y="78" width="260" height="26" as="geometry" />
        </mxCell>
        <mxCell id="zQ7XzDFX-CdMLgZaWSg_-21" value="g_protocols: struct protocol *" style="text;html=1;strokeColor=none;fillColor=none;align=left;verticalAlign=top;spacingLeft=4;spacingRight=4;whiteSpace=wrap;overflow=hidden;rotatable=0;points=[[0,0.5],[1,0.5]];portConstraint=eastwest;" parent="zQ7XzDFX-CdMLgZaWSg_-17" vertex="1">
          <mxGeometry y="104" width="260" height="26" as="geometry" />
        </mxCell>
        <mxCell id="zQ7XzDFX-CdMLgZaWSg_-26" value="g_lastrid: int" style="text;html=1;strokeColor=none;fillColor=none;align=left;verticalAlign=top;spacingLeft=4;spacingRight=4;whiteSpace=wrap;overflow=hidden;rotatable=0;points=[[0,0.5],[1,0.5]];portConstraint=eastwest;" parent="zQ7XzDFX-CdMLgZaWSg_-17" vertex="1">
          <mxGeometry y="130" width="260" height="26" as="geometry" />
        </mxCell>
        <mxCell id="zQ7XzDFX-CdMLgZaWSg_-28" value="g_main_loop: struct event *" style="text;html=1;strokeColor=none;fillColor=none;align=left;verticalAlign=top;spacingLeft=4;spacingRight=4;whiteSpace=wrap;overflow=hidden;rotatable=0;points=[[0,0.5],[1,0.5]];portConstraint=eastwest;" parent="zQ7XzDFX-CdMLgZaWSg_-17" vertex="1">
          <mxGeometry y="156" width="260" height="26" as="geometry" />
        </mxCell>
        <mxCell id="zQ7XzDFX-CdMLgZaWSg_-27" value="g_cleanup_timer: struct event *" style="text;html=1;strokeColor=none;fillColor=none;align=left;verticalAlign=top;spacingLeft=4;spacingRight=4;whiteSpace=wrap;overflow=hidden;rotatable=0;points=[[0,0.5],[1,0.5]];portConstraint=eastwest;" parent="zQ7XzDFX-CdMLgZaWSg_-17" vertex="1">
          <mxGeometry y="182" width="260" height="26" as="geometry" />
        </mxCell>
        <mxCell id="zQ7XzDFX-CdMLgZaWSg_-29" value="g_ctlname: const char *" style="text;html=1;strokeColor=none;fillColor=none;align=left;verticalAlign=top;spacingLeft=4;spacingRight=4;whiteSpace=wrap;overflow=hidden;rotatable=0;points=[[0,0.5],[1,0.5]];portConstraint=eastwest;" parent="zQ7XzDFX-CdMLgZaWSg_-17" vertex="1">
          <mxGeometry y="208" width="260" height="26" as="geometry" />
        </mxCell>
        <mxCell id="zQ7XzDFX-CdMLgZaWSg_-31" value="g_ctl: int" style="text;html=1;strokeColor=none;fillColor=none;align=left;verticalAlign=top;spacingLeft=4;spacingRight=4;whiteSpace=wrap;overflow=hidden;rotatable=0;points=[[0,0.5],[1,0.5]];portConstraint=eastwest;" parent="zQ7XzDFX-CdMLgZaWSg_-17" vertex="1">
          <mxGeometry y="234" width="260" height="26" as="geometry" />
        </mxCell>
        <mxCell id="zQ7XzDFX-CdMLgZaWSg_-30" value="g_iface_event: struct event" style="text;html=1;strokeColor=none;fillColor=none;align=left;verticalAlign=top;spacingLeft=4;spacingRight=4;whiteSpace=wrap;overflow=hidden;rotatable=0;points=[[0,0.5],[1,0.5]];portConstraint=eastwest;" parent="zQ7XzDFX-CdMLgZaWSg_-17" vertex="1">
          <mxGeometry y="260" width="260" height="26" as="geometry" />
        </mxCell>
        <mxCell id="zQ7XzDFX-CdMLgZaWSg_-32" value="g_iface_timer_event: struct event" style="text;html=1;strokeColor=none;fillColor=none;align=left;verticalAlign=top;spacingLeft=4;spacingRight=4;whiteSpace=wrap;overflow=hidden;rotatable=0;points=[[0,0.5],[1,0.5]];portConstraint=eastwest;" parent="zQ7XzDFX-CdMLgZaWSg_-17" vertex="1">
          <mxGeometry y="286" width="260" height="26" as="geometry" />
        </mxCell>
        <mxCell id="zQ7XzDFX-CdMLgZaWSg_-33" value="g_lsb_release: char *" style="text;html=1;strokeColor=none;fillColor=none;align=left;verticalAlign=top;spacingLeft=4;spacingRight=4;whiteSpace=wrap;overflow=hidden;rotatable=0;points=[[0,0.5],[1,0.5]];portConstraint=eastwest;" parent="zQ7XzDFX-CdMLgZaWSg_-17" vertex="1">
          <mxGeometry y="312" width="260" height="26" as="geometry" />
        </mxCell>
        <mxCell id="zQ7XzDFX-CdMLgZaWSg_-34" value="g_chassis: TAILQ_HEAD(, lldpd_chassis)" style="text;html=1;strokeColor=none;fillColor=none;align=left;verticalAlign=top;spacingLeft=4;spacingRight=4;whiteSpace=wrap;overflow=hidden;rotatable=0;points=[[0,0.5],[1,0.5]];portConstraint=eastwest;" parent="zQ7XzDFX-CdMLgZaWSg_-17" vertex="1">
          <mxGeometry y="338" width="260" height="26" as="geometry" />
        </mxCell>
        <mxCell id="zQ7XzDFX-CdMLgZaWSg_-22" value="g_hardware: TAILQ_HEAD(, lldpd_hardware)" style="text;html=1;strokeColor=none;fillColor=none;align=left;verticalAlign=top;spacingLeft=4;spacingRight=4;whiteSpace=wrap;overflow=hidden;rotatable=0;points=[[0,0.5],[1,0.5]];portConstraint=eastwest;" parent="zQ7XzDFX-CdMLgZaWSg_-17" vertex="1">
          <mxGeometry y="364" width="260" height="26" as="geometry" />
        </mxCell>
        <mxCell id="zQ7XzDFX-CdMLgZaWSg_-23" value="" style="line;html=1;strokeWidth=1;fillColor=none;align=left;verticalAlign=middle;spacingTop=-1;spacingLeft=3;spacingRight=3;rotatable=0;labelPosition=right;points=[];portConstraint=eastwest;" parent="zQ7XzDFX-CdMLgZaWSg_-17" vertex="1">
          <mxGeometry y="390" width="260" height="8" as="geometry" />
        </mxCell>
        <mxCell id="zQ7XzDFX-CdMLgZaWSg_-35" style="edgeStyle=elbowEdgeStyle;html=1;labelBackgroundColor=none;startFill=0;startSize=8;endArrow=diamondThin;endFill=0;endSize=16;fontFamily=Verdana;fontSize=12;elbow=vertical;" parent="1" edge="1">
          <mxGeometry relative="1" as="geometry">
            <mxPoint x="1260" y="10" as="sourcePoint" />
            <mxPoint x="1360" y="10.000000000000004" as="targetPoint" />
          </mxGeometry>
        </mxCell>
        <mxCell id="zQ7XzDFX-CdMLgZaWSg_-171" value="cfg" style="edgeLabel;html=1;align=center;verticalAlign=middle;resizable=0;points=[];" parent="zQ7XzDFX-CdMLgZaWSg_-35" vertex="1" connectable="0">
          <mxGeometry x="-0.3256" y="1" relative="1" as="geometry">
            <mxPoint as="offset" />
          </mxGeometry>
        </mxCell>
        <mxCell id="zQ7XzDFX-CdMLgZaWSg_-38" value="" style="endArrow=classic;html=1;rounded=0;entryX=1;entryY=0.5;entryDx=0;entryDy=0;" parent="1" target="zQ7XzDFX-CdMLgZaWSg_-29" edge="1">
          <mxGeometry width="50" height="50" relative="1" as="geometry">
            <mxPoint x="1770" y="220" as="sourcePoint" />
            <mxPoint x="1810" y="230" as="targetPoint" />
          </mxGeometry>
        </mxCell>
        <mxCell id="zQ7XzDFX-CdMLgZaWSg_-39" value="LLDPD_CTL_SOCKET(&quot;/var/run/lldpd.socket&quot;)" style="edgeLabel;html=1;align=center;verticalAlign=middle;resizable=0;points=[];" parent="zQ7XzDFX-CdMLgZaWSg_-38" vertex="1" connectable="0">
          <mxGeometry x="-0.8088" y="-1" relative="1" as="geometry">
            <mxPoint x="24" y="-6" as="offset" />
          </mxGeometry>
        </mxCell>
        <mxCell id="zQ7XzDFX-CdMLgZaWSg_-40" value="" style="endArrow=classic;html=1;rounded=0;entryX=1;entryY=0.5;entryDx=0;entryDy=0;" parent="1" target="zQ7XzDFX-CdMLgZaWSg_-31" edge="1">
          <mxGeometry width="50" height="50" relative="1" as="geometry">
            <mxPoint x="1800" y="247" as="sourcePoint" />
            <mxPoint x="1790" y="280" as="targetPoint" />
          </mxGeometry>
        </mxCell>
        <mxCell id="zQ7XzDFX-CdMLgZaWSg_-42" value="a listening Unix socket" style="edgeLabel;html=1;align=center;verticalAlign=middle;resizable=0;points=[];" parent="zQ7XzDFX-CdMLgZaWSg_-40" vertex="1" connectable="0">
          <mxGeometry x="-0.1931" y="-1" relative="1" as="geometry">
            <mxPoint as="offset" />
          </mxGeometry>
        </mxCell>
        <mxCell id="zQ7XzDFX-CdMLgZaWSg_-44" value="" style="endArrow=classic;html=1;rounded=0;entryX=1;entryY=0.5;entryDx=0;entryDy=0;" parent="1" target="zQ7XzDFX-CdMLgZaWSg_-33" edge="1">
          <mxGeometry width="50" height="50" relative="1" as="geometry">
            <mxPoint x="1800" y="325" as="sourcePoint" />
            <mxPoint x="1800" y="330" as="targetPoint" />
          </mxGeometry>
        </mxCell>
        <mxCell id="zQ7XzDFX-CdMLgZaWSg_-45" value="Ubuntu 22.04.4 LTS" style="edgeLabel;html=1;align=center;verticalAlign=middle;resizable=0;points=[];" parent="zQ7XzDFX-CdMLgZaWSg_-44" vertex="1" connectable="0">
          <mxGeometry x="-0.1625" y="1" relative="1" as="geometry">
            <mxPoint as="offset" />
          </mxGeometry>
        </mxCell>
        <mxCell id="zQ7XzDFX-CdMLgZaWSg_-185" style="edgeStyle=orthogonalEdgeStyle;rounded=0;orthogonalLoop=1;jettySize=auto;html=1;exitX=0;exitY=0.5;exitDx=0;exitDy=0;" parent="1" source="zQ7XzDFX-CdMLgZaWSg_-46" target="zQ7XzDFX-CdMLgZaWSg_-181" edge="1">
          <mxGeometry relative="1" as="geometry" />
        </mxCell>
        <mxCell id="zQ7XzDFX-CdMLgZaWSg_-46" value="pair[0]&lt;br&gt;PRIV_UNPRIVILEGED" style="rounded=1;whiteSpace=wrap;html=1;" parent="1" vertex="1">
          <mxGeometry x="1880" y="-360" width="120" height="60" as="geometry" />
        </mxCell>
        <mxCell id="zQ7XzDFX-CdMLgZaWSg_-47" value="pair[1]&lt;br&gt;PRIV_PRIVILEGED" style="rounded=1;whiteSpace=wrap;html=1;" parent="1" vertex="1">
          <mxGeometry x="2200" y="-360" width="120" height="60" as="geometry" />
        </mxCell>
        <mxCell id="zQ7XzDFX-CdMLgZaWSg_-49" value="" style="endArrow=none;dashed=1;html=1;dashPattern=1 3;strokeWidth=2;rounded=0;" parent="1" edge="1">
          <mxGeometry width="50" height="50" relative="1" as="geometry">
            <mxPoint x="1750" y="-200" as="sourcePoint" />
            <mxPoint x="2550" y="-200" as="targetPoint" />
          </mxGeometry>
        </mxCell>
        <mxCell id="zQ7XzDFX-CdMLgZaWSg_-50" value="Socket" style="rounded=0;whiteSpace=wrap;html=1;" parent="1" vertex="1">
          <mxGeometry x="1880" y="-120" width="120" height="60" as="geometry" />
        </mxCell>
        <mxCell id="zQ7XzDFX-CdMLgZaWSg_-51" value="Socket" style="rounded=0;whiteSpace=wrap;html=1;" parent="1" vertex="1">
          <mxGeometry x="2200" y="-120" width="120" height="60" as="geometry" />
        </mxCell>
        <mxCell id="zQ7XzDFX-CdMLgZaWSg_-53" value="" style="endArrow=classic;startArrow=classic;html=1;rounded=0;exitX=1;exitY=0.5;exitDx=0;exitDy=0;entryX=0;entryY=0.5;entryDx=0;entryDy=0;" parent="1" source="zQ7XzDFX-CdMLgZaWSg_-50" target="zQ7XzDFX-CdMLgZaWSg_-51" edge="1">
          <mxGeometry width="50" height="50" relative="1" as="geometry">
            <mxPoint x="2050" y="-50" as="sourcePoint" />
            <mxPoint x="2100" y="-100" as="targetPoint" />
          </mxGeometry>
        </mxCell>
        <mxCell id="zQ7XzDFX-CdMLgZaWSg_-54" value="" style="endArrow=classic;html=1;rounded=0;exitX=0.25;exitY=1;exitDx=0;exitDy=0;entryX=0.25;entryY=0;entryDx=0;entryDy=0;" parent="1" source="zQ7XzDFX-CdMLgZaWSg_-46" target="zQ7XzDFX-CdMLgZaWSg_-50" edge="1">
          <mxGeometry width="50" height="50" relative="1" as="geometry">
            <mxPoint x="1890" y="-200" as="sourcePoint" />
            <mxPoint x="1940" y="-250" as="targetPoint" />
          </mxGeometry>
        </mxCell>
        <mxCell id="zQ7XzDFX-CdMLgZaWSg_-59" value="CMD=PRIV_PING" style="edgeLabel;html=1;align=center;verticalAlign=middle;resizable=0;points=[];" parent="zQ7XzDFX-CdMLgZaWSg_-54" vertex="1" connectable="0">
          <mxGeometry x="-0.341" y="-2" relative="1" as="geometry">
            <mxPoint as="offset" />
          </mxGeometry>
        </mxCell>
        <mxCell id="zQ7XzDFX-CdMLgZaWSg_-55" value="" style="endArrow=classic;html=1;rounded=0;entryX=0.317;entryY=1.014;entryDx=0;entryDy=0;entryPerimeter=0;exitX=0.321;exitY=-0.007;exitDx=0;exitDy=0;exitPerimeter=0;" parent="1" source="zQ7XzDFX-CdMLgZaWSg_-51" target="zQ7XzDFX-CdMLgZaWSg_-47" edge="1">
          <mxGeometry width="50" height="50" relative="1" as="geometry">
            <mxPoint x="2240" y="-130" as="sourcePoint" />
            <mxPoint x="2290" y="-180" as="targetPoint" />
          </mxGeometry>
        </mxCell>
        <mxCell id="zQ7XzDFX-CdMLgZaWSg_-68" value="CMD=PRIV_PING" style="edgeLabel;html=1;align=center;verticalAlign=middle;resizable=0;points=[];" parent="zQ7XzDFX-CdMLgZaWSg_-55" vertex="1" connectable="0">
          <mxGeometry x="0.5124" y="-1" relative="1" as="geometry">
            <mxPoint as="offset" />
          </mxGeometry>
        </mxCell>
        <mxCell id="zQ7XzDFX-CdMLgZaWSg_-56" value="" style="endArrow=classic;html=1;rounded=0;entryX=0.75;entryY=1;entryDx=0;entryDy=0;exitX=0.75;exitY=0;exitDx=0;exitDy=0;fillColor=#0000FF;strokeColor=#0000FF;" parent="1" source="zQ7XzDFX-CdMLgZaWSg_-50" target="zQ7XzDFX-CdMLgZaWSg_-46" edge="1">
          <mxGeometry width="50" height="50" relative="1" as="geometry">
            <mxPoint x="1960" y="-180" as="sourcePoint" />
            <mxPoint x="2010" y="-230" as="targetPoint" />
          </mxGeometry>
        </mxCell>
        <mxCell id="zQ7XzDFX-CdMLgZaWSg_-58" value="" style="endArrow=classic;html=1;rounded=0;exitX=0.25;exitY=1;exitDx=0;exitDy=0;entryX=0.25;entryY=0;entryDx=0;entryDy=0;strokeColor=#0000FF;" parent="1" edge="1">
          <mxGeometry width="50" height="50" relative="1" as="geometry">
            <mxPoint x="2290" y="-300" as="sourcePoint" />
            <mxPoint x="2290" y="-120" as="targetPoint" />
          </mxGeometry>
        </mxCell>
        <mxCell id="zQ7XzDFX-CdMLgZaWSg_-69" value="rc=1" style="edgeLabel;html=1;align=center;verticalAlign=middle;resizable=0;points=[];" parent="zQ7XzDFX-CdMLgZaWSg_-58" vertex="1" connectable="0">
          <mxGeometry x="-0.1739" relative="1" as="geometry">
            <mxPoint as="offset" />
          </mxGeometry>
        </mxCell>
        <mxCell id="zQ7XzDFX-CdMLgZaWSg_-63" value="&lt;div&gt;static struct dispatch_actions actions[] = {&lt;/div&gt;&lt;div&gt;&lt;span style=&quot;white-space: pre;&quot;&gt;&amp;nbsp;&amp;nbsp;&amp;nbsp;&amp;nbsp;&lt;/span&gt;{&lt;b&gt;PRIV_PING,&lt;/b&gt; &lt;font color=&quot;#ff3333&quot;&gt;asroot_ping&lt;/font&gt;},&lt;/div&gt;&lt;div&gt;&lt;span style=&quot;&quot;&gt;&lt;span style=&quot;white-space: pre;&quot;&gt;&amp;nbsp;&amp;nbsp;&amp;nbsp;&amp;nbsp;&lt;/span&gt;&lt;/span&gt;{PRIV_DELETE_CTL_SOCKET, asroot_ctl_cleanup},&lt;/div&gt;&lt;div&gt;&lt;span style=&quot;&quot;&gt;&lt;span style=&quot;white-space: pre;&quot;&gt;&amp;nbsp;&amp;nbsp;&amp;nbsp;&amp;nbsp;&lt;/span&gt;&lt;/span&gt;{PRIV_GET_HOSTNAME, asroot_gethostname},&lt;/div&gt;&lt;div&gt;#ifdef HOST_OS_LINUX&lt;/div&gt;&lt;div&gt;&lt;span style=&quot;&quot;&gt;&lt;span style=&quot;white-space: pre;&quot;&gt;&amp;nbsp;&amp;nbsp;&amp;nbsp;&amp;nbsp;&lt;/span&gt;&lt;/span&gt;{PRIV_OPEN, asroot_open},&lt;/div&gt;&lt;div&gt;&lt;span style=&quot;&quot;&gt;&lt;span style=&quot;white-space: pre;&quot;&gt;&amp;nbsp;&amp;nbsp;&amp;nbsp;&amp;nbsp;&lt;/span&gt;&lt;/span&gt;{PRIV_ETHTOOL, asroot_ethtool},&lt;/div&gt;&lt;div&gt;#endif&lt;/div&gt;&lt;div&gt;&lt;span style=&quot;&quot;&gt;&lt;span style=&quot;white-space: pre;&quot;&gt;&amp;nbsp;&amp;nbsp;&amp;nbsp;&amp;nbsp;&lt;/span&gt;&lt;/span&gt;{PRIV_IFACE_INIT, asroot_iface_init},&lt;/div&gt;&lt;div&gt;&lt;span style=&quot;&quot;&gt;&lt;span style=&quot;white-space: pre;&quot;&gt;&amp;nbsp;&amp;nbsp;&amp;nbsp;&amp;nbsp;&lt;/span&gt;&lt;/span&gt;{PRIV_IFACE_MULTICAST, asroot_iface_multicast},&lt;/div&gt;&lt;div&gt;&lt;span style=&quot;&quot;&gt;&lt;span style=&quot;white-space: pre;&quot;&gt;&amp;nbsp;&amp;nbsp;&amp;nbsp;&amp;nbsp;&lt;/span&gt;&lt;/span&gt;{PRIV_IFACE_DESCRIPTION, asroot_iface_description},&lt;/div&gt;&lt;div&gt;&lt;span style=&quot;&quot;&gt;&lt;span style=&quot;white-space: pre;&quot;&gt;&amp;nbsp;&amp;nbsp;&amp;nbsp;&amp;nbsp;&lt;/span&gt;&lt;/span&gt;{PRIV_IFACE_PROMISC, asroot_iface_promisc},&lt;/div&gt;&lt;div&gt;&lt;span style=&quot;&quot;&gt;&lt;span style=&quot;white-space: pre;&quot;&gt;&amp;nbsp;&amp;nbsp;&amp;nbsp;&amp;nbsp;&lt;/span&gt;&lt;/span&gt;{PRIV_SNMP_SOCKET, asroot_snmp_socket},&lt;/div&gt;&lt;div&gt;&lt;span style=&quot;&quot;&gt;&lt;span style=&quot;white-space: pre;&quot;&gt;&amp;nbsp;&amp;nbsp;&amp;nbsp;&amp;nbsp;&lt;/span&gt;&lt;/span&gt;{-1, NULL}&lt;/div&gt;&lt;div&gt;};&lt;/div&gt;" style="html=1;points=[];perimeter=orthogonalPerimeter;outlineConnect=0;targetShapes=umlLifeline;portConstraint=eastwest;newEdgeStyle={&quot;edgeStyle&quot;:&quot;elbowEdgeStyle&quot;,&quot;elbow&quot;:&quot;vertical&quot;,&quot;curved&quot;:0,&quot;rounded&quot;:0};align=left;" parent="1" vertex="1">
          <mxGeometry x="2390" y="-540" width="390" height="220" as="geometry" />
        </mxCell>
        <mxCell id="zQ7XzDFX-CdMLgZaWSg_-65" value="return" style="html=1;verticalAlign=bottom;endArrow=open;dashed=1;endSize=8;edgeStyle=elbowEdgeStyle;elbow=vertical;curved=0;rounded=0;" parent="1" source="zQ7XzDFX-CdMLgZaWSg_-63" edge="1">
          <mxGeometry relative="1" as="geometry">
            <mxPoint x="2320" y="-325" as="targetPoint" />
          </mxGeometry>
        </mxCell>
        <mxCell id="zQ7XzDFX-CdMLgZaWSg_-67" value="dispatch" style="html=1;verticalAlign=bottom;startArrow=oval;startFill=1;endArrow=block;startSize=8;edgeStyle=elbowEdgeStyle;elbow=vertical;curved=0;rounded=0;" parent="1" target="zQ7XzDFX-CdMLgZaWSg_-63" edge="1">
          <mxGeometry width="60" relative="1" as="geometry">
            <mxPoint x="2320" y="-350" as="sourcePoint" />
            <mxPoint x="2380" y="-350" as="targetPoint" />
          </mxGeometry>
        </mxCell>
        <mxCell id="zQ7XzDFX-CdMLgZaWSg_-70" value="struct lldpd_config" style="swimlane;html=1;fontStyle=1;align=center;verticalAlign=top;childLayout=stackLayout;horizontal=1;startSize=26;horizontalStack=0;resizeParent=1;resizeLast=0;collapsible=1;marginBottom=0;swimlaneFillColor=#ffffff;rounded=0;shadow=0;comic=0;labelBackgroundColor=none;strokeWidth=1;fillColor=none;fontFamily=Verdana;fontSize=12" parent="1" vertex="1">
          <mxGeometry x="2040" y="70" width="260" height="684" as="geometry" />
        </mxCell>
        <mxCell id="zQ7XzDFX-CdMLgZaWSg_-71" value="c_paused: int" style="text;html=1;strokeColor=none;fillColor=none;align=left;verticalAlign=top;spacingLeft=4;spacingRight=4;whiteSpace=wrap;overflow=hidden;rotatable=0;points=[[0,0.5],[1,0.5]];portConstraint=eastwest;" parent="zQ7XzDFX-CdMLgZaWSg_-70" vertex="1">
          <mxGeometry y="26" width="260" height="26" as="geometry" />
        </mxCell>
        <mxCell id="zQ7XzDFX-CdMLgZaWSg_-72" value="int c_tx_interval" style="text;html=1;strokeColor=none;fillColor=none;align=left;verticalAlign=top;spacingLeft=4;spacingRight=4;whiteSpace=wrap;overflow=hidden;rotatable=0;points=[[0,0.5],[1,0.5]];portConstraint=eastwest;" parent="zQ7XzDFX-CdMLgZaWSg_-70" vertex="1">
          <mxGeometry y="52" width="260" height="26" as="geometry" />
        </mxCell>
        <mxCell id="zQ7XzDFX-CdMLgZaWSg_-73" value="nt c_smart;" style="text;html=1;strokeColor=none;fillColor=none;align=left;verticalAlign=top;spacingLeft=4;spacingRight=4;whiteSpace=wrap;overflow=hidden;rotatable=0;points=[[0,0.5],[1,0.5]];portConstraint=eastwest;" parent="zQ7XzDFX-CdMLgZaWSg_-70" vertex="1">
          <mxGeometry y="78" width="260" height="26" as="geometry" />
        </mxCell>
        <mxCell id="zQ7XzDFX-CdMLgZaWSg_-74" value="int c_receiveonly;" style="text;html=1;strokeColor=none;fillColor=none;align=left;verticalAlign=top;spacingLeft=4;spacingRight=4;whiteSpace=wrap;overflow=hidden;rotatable=0;points=[[0,0.5],[1,0.5]];portConstraint=eastwest;" parent="zQ7XzDFX-CdMLgZaWSg_-70" vertex="1">
          <mxGeometry y="104" width="260" height="26" as="geometry" />
        </mxCell>
        <mxCell id="zQ7XzDFX-CdMLgZaWSg_-75" value="int c_max_neighbors" style="text;html=1;strokeColor=none;fillColor=none;align=left;verticalAlign=top;spacingLeft=4;spacingRight=4;whiteSpace=wrap;overflow=hidden;rotatable=0;points=[[0,0.5],[1,0.5]];portConstraint=eastwest;" parent="zQ7XzDFX-CdMLgZaWSg_-70" vertex="1">
          <mxGeometry y="130" width="260" height="26" as="geometry" />
        </mxCell>
        <mxCell id="zQ7XzDFX-CdMLgZaWSg_-78" value="*" style="text;html=1;strokeColor=none;fillColor=none;align=left;verticalAlign=top;spacingLeft=4;spacingRight=4;whiteSpace=wrap;overflow=hidden;rotatable=0;points=[[0,0.5],[1,0.5]];portConstraint=eastwest;" parent="zQ7XzDFX-CdMLgZaWSg_-70" vertex="1">
          <mxGeometry y="156" width="260" height="26" as="geometry" />
        </mxCell>
        <mxCell id="zQ7XzDFX-CdMLgZaWSg_-79" value="char *c_mgmt_pattern;" style="text;html=1;strokeColor=none;fillColor=none;align=left;verticalAlign=top;spacingLeft=4;spacingRight=4;whiteSpace=wrap;overflow=hidden;rotatable=0;points=[[0,0.5],[1,0.5]];portConstraint=eastwest;" parent="zQ7XzDFX-CdMLgZaWSg_-70" vertex="1">
          <mxGeometry y="182" width="260" height="26" as="geometry" />
        </mxCell>
        <mxCell id="zQ7XzDFX-CdMLgZaWSg_-80" value="char *c_cid_pattern;" style="text;html=1;strokeColor=none;fillColor=none;align=left;verticalAlign=top;spacingLeft=4;spacingRight=4;whiteSpace=wrap;overflow=hidden;rotatable=0;points=[[0,0.5],[1,0.5]];portConstraint=eastwest;" parent="zQ7XzDFX-CdMLgZaWSg_-70" vertex="1">
          <mxGeometry y="208" width="260" height="26" as="geometry" />
        </mxCell>
        <mxCell id="zQ7XzDFX-CdMLgZaWSg_-81" value="char *c_iface_pattern;" style="text;html=1;strokeColor=none;fillColor=none;align=left;verticalAlign=top;spacingLeft=4;spacingRight=4;whiteSpace=wrap;overflow=hidden;rotatable=0;points=[[0,0.5],[1,0.5]];portConstraint=eastwest;" parent="zQ7XzDFX-CdMLgZaWSg_-70" vertex="1">
          <mxGeometry y="234" width="260" height="26" as="geometry" />
        </mxCell>
        <mxCell id="zQ7XzDFX-CdMLgZaWSg_-82" value="char *c_platform;" style="text;html=1;strokeColor=none;fillColor=none;align=left;verticalAlign=top;spacingLeft=4;spacingRight=4;whiteSpace=wrap;overflow=hidden;rotatable=0;points=[[0,0.5],[1,0.5]];portConstraint=eastwest;" parent="zQ7XzDFX-CdMLgZaWSg_-70" vertex="1">
          <mxGeometry y="260" width="260" height="26" as="geometry" />
        </mxCell>
        <mxCell id="zQ7XzDFX-CdMLgZaWSg_-83" value="char *c_description;" style="text;html=1;strokeColor=none;fillColor=none;align=left;verticalAlign=top;spacingLeft=4;spacingRight=4;whiteSpace=wrap;overflow=hidden;rotatable=0;points=[[0,0.5],[1,0.5]];portConstraint=eastwest;" parent="zQ7XzDFX-CdMLgZaWSg_-70" vertex="1">
          <mxGeometry y="286" width="260" height="26" as="geometry" />
        </mxCell>
        <mxCell id="zQ7XzDFX-CdMLgZaWSg_-84" value="char *c_hostname;" style="text;html=1;strokeColor=none;fillColor=none;align=left;verticalAlign=top;spacingLeft=4;spacingRight=4;whiteSpace=wrap;overflow=hidden;rotatable=0;points=[[0,0.5],[1,0.5]];portConstraint=eastwest;" parent="zQ7XzDFX-CdMLgZaWSg_-70" vertex="1">
          <mxGeometry y="312" width="260" height="26" as="geometry" />
        </mxCell>
        <mxCell id="zQ7XzDFX-CdMLgZaWSg_-89" value="int c_advertise_version;" style="text;html=1;strokeColor=none;fillColor=none;align=left;verticalAlign=top;spacingLeft=4;spacingRight=4;whiteSpace=wrap;overflow=hidden;rotatable=0;points=[[0,0.5],[1,0.5]];portConstraint=eastwest;" parent="zQ7XzDFX-CdMLgZaWSg_-70" vertex="1">
          <mxGeometry y="338" width="260" height="26" as="geometry" />
        </mxCell>
        <mxCell id="zQ7XzDFX-CdMLgZaWSg_-90" value="int c_set_ifdescr;&#x9;" style="text;html=1;strokeColor=none;fillColor=none;align=left;verticalAlign=top;spacingLeft=4;spacingRight=4;whiteSpace=wrap;overflow=hidden;rotatable=0;points=[[0,0.5],[1,0.5]];portConstraint=eastwest;" parent="zQ7XzDFX-CdMLgZaWSg_-70" vertex="1">
          <mxGeometry y="364" width="260" height="26" as="geometry" />
        </mxCell>
        <mxCell id="zQ7XzDFX-CdMLgZaWSg_-91" value="int c_promisc;&#x9;" style="text;html=1;strokeColor=none;fillColor=none;align=left;verticalAlign=top;spacingLeft=4;spacingRight=4;whiteSpace=wrap;overflow=hidden;rotatable=0;points=[[0,0.5],[1,0.5]];portConstraint=eastwest;" parent="zQ7XzDFX-CdMLgZaWSg_-70" vertex="1">
          <mxGeometry y="390" width="260" height="26" as="geometry" />
        </mxCell>
        <mxCell id="zQ7XzDFX-CdMLgZaWSg_-92" value="int c_cap_advertise;&#x9;" style="text;html=1;strokeColor=none;fillColor=none;align=left;verticalAlign=top;spacingLeft=4;spacingRight=4;whiteSpace=wrap;overflow=hidden;rotatable=0;points=[[0,0.5],[1,0.5]];portConstraint=eastwest;" parent="zQ7XzDFX-CdMLgZaWSg_-70" vertex="1">
          <mxGeometry y="416" width="260" height="26" as="geometry" />
        </mxCell>
        <mxCell id="zQ7XzDFX-CdMLgZaWSg_-93" value="int c_mgmt_advertise;&#x9;" style="text;html=1;strokeColor=none;fillColor=none;align=left;verticalAlign=top;spacingLeft=4;spacingRight=4;whiteSpace=wrap;overflow=hidden;rotatable=0;points=[[0,0.5],[1,0.5]];portConstraint=eastwest;" parent="zQ7XzDFX-CdMLgZaWSg_-70" vertex="1">
          <mxGeometry y="442" width="260" height="26" as="geometry" />
        </mxCell>
        <mxCell id="zQ7XzDFX-CdMLgZaWSg_-94" value="int c_noinventory;&#x9;" style="text;html=1;strokeColor=none;fillColor=none;align=left;verticalAlign=top;spacingLeft=4;spacingRight=4;whiteSpace=wrap;overflow=hidden;rotatable=0;points=[[0,0.5],[1,0.5]];portConstraint=eastwest;" parent="zQ7XzDFX-CdMLgZaWSg_-70" vertex="1">
          <mxGeometry y="468" width="260" height="26" as="geometry" />
        </mxCell>
        <mxCell id="zQ7XzDFX-CdMLgZaWSg_-95" value="int c_enable_fast_start;&#x9;" style="text;html=1;strokeColor=none;fillColor=none;align=left;verticalAlign=top;spacingLeft=4;spacingRight=4;whiteSpace=wrap;overflow=hidden;rotatable=0;points=[[0,0.5],[1,0.5]];portConstraint=eastwest;" parent="zQ7XzDFX-CdMLgZaWSg_-70" vertex="1">
          <mxGeometry y="494" width="260" height="26" as="geometry" />
        </mxCell>
        <mxCell id="zQ7XzDFX-CdMLgZaWSg_-96" value="int c_tx_fast_init;" style="text;html=1;strokeColor=none;fillColor=none;align=left;verticalAlign=top;spacingLeft=4;spacingRight=4;whiteSpace=wrap;overflow=hidden;rotatable=0;points=[[0,0.5],[1,0.5]];portConstraint=eastwest;" parent="zQ7XzDFX-CdMLgZaWSg_-70" vertex="1">
          <mxGeometry y="520" width="260" height="26" as="geometry" />
        </mxCell>
        <mxCell id="zQ7XzDFX-CdMLgZaWSg_-97" value="int c_tx_fast_interval;" style="text;html=1;strokeColor=none;fillColor=none;align=left;verticalAlign=top;spacingLeft=4;spacingRight=4;whiteSpace=wrap;overflow=hidden;rotatable=0;points=[[0,0.5],[1,0.5]];portConstraint=eastwest;" parent="zQ7XzDFX-CdMLgZaWSg_-70" vertex="1">
          <mxGeometry y="546" width="260" height="26" as="geometry" />
        </mxCell>
        <mxCell id="zQ7XzDFX-CdMLgZaWSg_-98" value="int c_tx_hold;" style="text;html=1;strokeColor=none;fillColor=none;align=left;verticalAlign=top;spacingLeft=4;spacingRight=4;whiteSpace=wrap;overflow=hidden;rotatable=0;points=[[0,0.5],[1,0.5]];portConstraint=eastwest;" parent="zQ7XzDFX-CdMLgZaWSg_-70" vertex="1">
          <mxGeometry y="572" width="260" height="26" as="geometry" />
        </mxCell>
        <mxCell id="zQ7XzDFX-CdMLgZaWSg_-99" value="int c_bond_slave_src_mac_type;" style="text;html=1;strokeColor=none;fillColor=none;align=left;verticalAlign=top;spacingLeft=4;spacingRight=4;whiteSpace=wrap;overflow=hidden;rotatable=0;points=[[0,0.5],[1,0.5]];portConstraint=eastwest;" parent="zQ7XzDFX-CdMLgZaWSg_-70" vertex="1">
          <mxGeometry y="598" width="260" height="26" as="geometry" />
        </mxCell>
        <mxCell id="zQ7XzDFX-CdMLgZaWSg_-101" value="int c_lldp_portid_type;&amp;nbsp;" style="text;html=1;strokeColor=none;fillColor=none;align=left;verticalAlign=top;spacingLeft=4;spacingRight=4;whiteSpace=wrap;overflow=hidden;rotatable=0;points=[[0,0.5],[1,0.5]];portConstraint=eastwest;" parent="zQ7XzDFX-CdMLgZaWSg_-70" vertex="1">
          <mxGeometry y="624" width="260" height="26" as="geometry" />
        </mxCell>
        <mxCell id="zQ7XzDFX-CdMLgZaWSg_-85" value="" style="line;html=1;strokeWidth=1;fillColor=none;align=left;verticalAlign=middle;spacingTop=-1;spacingLeft=3;spacingRight=3;rotatable=0;labelPosition=right;points=[];portConstraint=eastwest;" parent="zQ7XzDFX-CdMLgZaWSg_-70" vertex="1">
          <mxGeometry y="650" width="260" height="8" as="geometry" />
        </mxCell>
        <mxCell id="zQ7XzDFX-CdMLgZaWSg_-86" value="" style="endArrow=diamondThin;endFill=0;endSize=24;html=1;rounded=0;exitX=1;exitY=0.5;exitDx=0;exitDy=0;entryX=0.011;entryY=0.038;entryDx=0;entryDy=0;entryPerimeter=0;" parent="1" source="zQ7XzDFX-CdMLgZaWSg_-20" target="zQ7XzDFX-CdMLgZaWSg_-70" edge="1">
          <mxGeometry width="160" relative="1" as="geometry">
            <mxPoint x="1710" y="10" as="sourcePoint" />
            <mxPoint x="1870" y="10" as="targetPoint" />
          </mxGeometry>
        </mxCell>
        <mxCell id="zQ7XzDFX-CdMLgZaWSg_-87" value="" style="endArrow=classic;html=1;rounded=0;entryX=1;entryY=0.5;entryDx=0;entryDy=0;" parent="1" edge="1">
          <mxGeometry width="50" height="50" relative="1" as="geometry">
            <mxPoint x="1800" y="40" as="sourcePoint" />
            <mxPoint x="1620" y="40" as="targetPoint" />
          </mxGeometry>
        </mxCell>
        <mxCell id="zQ7XzDFX-CdMLgZaWSg_-88" value="AF_INET socket" style="edgeLabel;html=1;align=center;verticalAlign=middle;resizable=0;points=[];" parent="zQ7XzDFX-CdMLgZaWSg_-87" vertex="1" connectable="0">
          <mxGeometry x="-0.1931" y="-1" relative="1" as="geometry">
            <mxPoint as="offset" />
          </mxGeometry>
        </mxCell>
        <mxCell id="zQ7XzDFX-CdMLgZaWSg_-102" value="" style="endArrow=classic;html=1;rounded=0;entryX=1;entryY=0.5;entryDx=0;entryDy=0;" parent="1" target="zQ7XzDFX-CdMLgZaWSg_-71" edge="1">
          <mxGeometry width="50" height="50" relative="1" as="geometry">
            <mxPoint x="2450" y="110" as="sourcePoint" />
            <mxPoint x="2370" y="160" as="targetPoint" />
          </mxGeometry>
        </mxCell>
        <mxCell id="zQ7XzDFX-CdMLgZaWSg_-103" value="1" style="edgeLabel;html=1;align=center;verticalAlign=middle;resizable=0;points=[];" parent="zQ7XzDFX-CdMLgZaWSg_-102" vertex="1" connectable="0">
          <mxGeometry x="-0.3018" y="1" relative="1" as="geometry">
            <mxPoint as="offset" />
          </mxGeometry>
        </mxCell>
        <mxCell id="zQ7XzDFX-CdMLgZaWSg_-104" value="" style="endArrow=classic;html=1;rounded=0;entryX=1;entryY=0.5;entryDx=0;entryDy=0;" parent="1" edge="1">
          <mxGeometry width="50" height="50" relative="1" as="geometry">
            <mxPoint x="2450" y="131" as="sourcePoint" />
            <mxPoint x="2300" y="130" as="targetPoint" />
          </mxGeometry>
        </mxCell>
        <mxCell id="zQ7XzDFX-CdMLgZaWSg_-105" value="30" style="edgeLabel;html=1;align=center;verticalAlign=middle;resizable=0;points=[];" parent="zQ7XzDFX-CdMLgZaWSg_-104" vertex="1" connectable="0">
          <mxGeometry x="-0.3018" y="1" relative="1" as="geometry">
            <mxPoint as="offset" />
          </mxGeometry>
        </mxCell>
        <mxCell id="zQ7XzDFX-CdMLgZaWSg_-107" value="" style="endArrow=classic;html=1;rounded=0;entryX=1;entryY=0.5;entryDx=0;entryDy=0;" parent="1" edge="1">
          <mxGeometry width="50" height="50" relative="1" as="geometry">
            <mxPoint x="2450" y="161" as="sourcePoint" />
            <mxPoint x="2300" y="160" as="targetPoint" />
          </mxGeometry>
        </mxCell>
        <mxCell id="zQ7XzDFX-CdMLgZaWSg_-108" value="11" style="edgeLabel;html=1;align=center;verticalAlign=middle;resizable=0;points=[];" parent="zQ7XzDFX-CdMLgZaWSg_-107" vertex="1" connectable="0">
          <mxGeometry x="-0.3018" y="1" relative="1" as="geometry">
            <mxPoint as="offset" />
          </mxGeometry>
        </mxCell>
        <mxCell id="zQ7XzDFX-CdMLgZaWSg_-109" value="" style="endArrow=classic;html=1;rounded=0;entryX=1;entryY=0.5;entryDx=0;entryDy=0;" parent="1" edge="1">
          <mxGeometry width="50" height="50" relative="1" as="geometry">
            <mxPoint x="2450" y="211" as="sourcePoint" />
            <mxPoint x="2300" y="210" as="targetPoint" />
          </mxGeometry>
        </mxCell>
        <mxCell id="zQ7XzDFX-CdMLgZaWSg_-110" value="4" style="edgeLabel;html=1;align=center;verticalAlign=middle;resizable=0;points=[];" parent="zQ7XzDFX-CdMLgZaWSg_-109" vertex="1" connectable="0">
          <mxGeometry x="-0.3018" y="1" relative="1" as="geometry">
            <mxPoint as="offset" />
          </mxGeometry>
        </mxCell>
        <mxCell id="zQ7XzDFX-CdMLgZaWSg_-111" value="" style="endArrow=classic;html=1;rounded=0;entryX=1;entryY=0.5;entryDx=0;entryDy=0;" parent="1" edge="1">
          <mxGeometry width="50" height="50" relative="1" as="geometry">
            <mxPoint x="2450" y="321" as="sourcePoint" />
            <mxPoint x="2300" y="320" as="targetPoint" />
          </mxGeometry>
        </mxCell>
        <mxCell id="zQ7XzDFX-CdMLgZaWSg_-112" value="ens32" style="edgeLabel;html=1;align=center;verticalAlign=middle;resizable=0;points=[];" parent="zQ7XzDFX-CdMLgZaWSg_-111" vertex="1" connectable="0">
          <mxGeometry x="-0.3018" y="1" relative="1" as="geometry">
            <mxPoint as="offset" />
          </mxGeometry>
        </mxCell>
        <mxCell id="zQ7XzDFX-CdMLgZaWSg_-113" value="" style="endArrow=classic;html=1;rounded=0;entryX=1;entryY=0.5;entryDx=0;entryDy=0;" parent="1" edge="1">
          <mxGeometry width="50" height="50" relative="1" as="geometry">
            <mxPoint x="2450" y="371" as="sourcePoint" />
            <mxPoint x="2300" y="370" as="targetPoint" />
          </mxGeometry>
        </mxCell>
        <mxCell id="zQ7XzDFX-CdMLgZaWSg_-114" value="VRV" style="edgeLabel;html=1;align=center;verticalAlign=middle;resizable=0;points=[];" parent="zQ7XzDFX-CdMLgZaWSg_-113" vertex="1" connectable="0">
          <mxGeometry x="-0.3018" y="1" relative="1" as="geometry">
            <mxPoint as="offset" />
          </mxGeometry>
        </mxCell>
        <mxCell id="zQ7XzDFX-CdMLgZaWSg_-115" value="" style="endArrow=classic;html=1;rounded=0;entryX=1;entryY=0.5;entryDx=0;entryDy=0;" parent="1" edge="1">
          <mxGeometry width="50" height="50" relative="1" as="geometry">
            <mxPoint x="2450" y="425" as="sourcePoint" />
            <mxPoint x="2300" y="424" as="targetPoint" />
          </mxGeometry>
        </mxCell>
        <mxCell id="zQ7XzDFX-CdMLgZaWSg_-116" value="1" style="edgeLabel;html=1;align=center;verticalAlign=middle;resizable=0;points=[];" parent="zQ7XzDFX-CdMLgZaWSg_-115" vertex="1" connectable="0">
          <mxGeometry x="-0.3018" y="1" relative="1" as="geometry">
            <mxPoint as="offset" />
          </mxGeometry>
        </mxCell>
        <mxCell id="zQ7XzDFX-CdMLgZaWSg_-117" value="" style="endArrow=classic;html=1;rounded=0;entryX=1;entryY=0.5;entryDx=0;entryDy=0;" parent="1" edge="1">
          <mxGeometry width="50" height="50" relative="1" as="geometry">
            <mxPoint x="2450" y="581" as="sourcePoint" />
            <mxPoint x="2300" y="580" as="targetPoint" />
          </mxGeometry>
        </mxCell>
        <mxCell id="zQ7XzDFX-CdMLgZaWSg_-118" value="1" style="edgeLabel;html=1;align=center;verticalAlign=middle;resizable=0;points=[];" parent="zQ7XzDFX-CdMLgZaWSg_-117" vertex="1" connectable="0">
          <mxGeometry x="-0.3018" y="1" relative="1" as="geometry">
            <mxPoint as="offset" />
          </mxGeometry>
        </mxCell>
        <mxCell id="zQ7XzDFX-CdMLgZaWSg_-119" value="" style="endArrow=classic;html=1;rounded=0;entryX=1;entryY=0.5;entryDx=0;entryDy=0;" parent="1" edge="1">
          <mxGeometry width="50" height="50" relative="1" as="geometry">
            <mxPoint x="2450" y="601" as="sourcePoint" />
            <mxPoint x="2300" y="600" as="targetPoint" />
          </mxGeometry>
        </mxCell>
        <mxCell id="zQ7XzDFX-CdMLgZaWSg_-120" value="4" style="edgeLabel;html=1;align=center;verticalAlign=middle;resizable=0;points=[];" parent="zQ7XzDFX-CdMLgZaWSg_-119" vertex="1" connectable="0">
          <mxGeometry x="-0.3018" y="1" relative="1" as="geometry">
            <mxPoint as="offset" />
          </mxGeometry>
        </mxCell>
        <mxCell id="zQ7XzDFX-CdMLgZaWSg_-121" value="" style="endArrow=classic;html=1;rounded=0;entryX=1;entryY=0.5;entryDx=0;entryDy=0;" parent="1" edge="1">
          <mxGeometry width="50" height="50" relative="1" as="geometry">
            <mxPoint x="2450" y="629" as="sourcePoint" />
            <mxPoint x="2300" y="628" as="targetPoint" />
          </mxGeometry>
        </mxCell>
        <mxCell id="zQ7XzDFX-CdMLgZaWSg_-122" value="1" style="edgeLabel;html=1;align=center;verticalAlign=middle;resizable=0;points=[];" parent="zQ7XzDFX-CdMLgZaWSg_-121" vertex="1" connectable="0">
          <mxGeometry x="-0.3018" y="1" relative="1" as="geometry">
            <mxPoint as="offset" />
          </mxGeometry>
        </mxCell>
        <mxCell id="zQ7XzDFX-CdMLgZaWSg_-123" value="" style="endArrow=classic;html=1;rounded=0;entryX=1;entryY=0.5;entryDx=0;entryDy=0;" parent="1" edge="1">
          <mxGeometry width="50" height="50" relative="1" as="geometry">
            <mxPoint x="2450" y="661" as="sourcePoint" />
            <mxPoint x="2300" y="660" as="targetPoint" />
          </mxGeometry>
        </mxCell>
        <mxCell id="zQ7XzDFX-CdMLgZaWSg_-124" value="4" style="edgeLabel;html=1;align=center;verticalAlign=middle;resizable=0;points=[];" parent="zQ7XzDFX-CdMLgZaWSg_-123" vertex="1" connectable="0">
          <mxGeometry x="-0.3018" y="1" relative="1" as="geometry">
            <mxPoint as="offset" />
          </mxGeometry>
        </mxCell>
        <mxCell id="zQ7XzDFX-CdMLgZaWSg_-125" value="" style="endArrow=classic;html=1;rounded=0;entryX=1;entryY=0.5;entryDx=0;entryDy=0;" parent="1" edge="1">
          <mxGeometry width="50" height="50" relative="1" as="geometry">
            <mxPoint x="2450" y="681" as="sourcePoint" />
            <mxPoint x="2300" y="680" as="targetPoint" />
          </mxGeometry>
        </mxCell>
        <mxCell id="zQ7XzDFX-CdMLgZaWSg_-126" value="4" style="edgeLabel;html=1;align=center;verticalAlign=middle;resizable=0;points=[];" parent="zQ7XzDFX-CdMLgZaWSg_-125" vertex="1" connectable="0">
          <mxGeometry x="-0.3018" y="1" relative="1" as="geometry">
            <mxPoint as="offset" />
          </mxGeometry>
        </mxCell>
        <mxCell id="zQ7XzDFX-CdMLgZaWSg_-127" value="struct lldpd_chassis" style="swimlane;html=1;fontStyle=1;align=center;verticalAlign=top;childLayout=stackLayout;horizontal=1;startSize=26;horizontalStack=0;resizeParent=1;resizeLast=0;collapsible=1;marginBottom=0;swimlaneFillColor=#ffffff;rounded=0;shadow=0;comic=0;labelBackgroundColor=none;strokeWidth=1;fillColor=none;fontFamily=Verdana;fontSize=12" parent="1" vertex="1">
          <mxGeometry x="1480" y="760" width="240" height="450" as="geometry" />
        </mxCell>
        <mxCell id="zQ7XzDFX-CdMLgZaWSg_-128" value="TAILQ_ENTRY(lldpd_chassis) c_entries;" style="text;html=1;strokeColor=none;fillColor=none;align=left;verticalAlign=top;spacingLeft=4;spacingRight=4;whiteSpace=wrap;overflow=hidden;rotatable=0;points=[[0,0.5],[1,0.5]];portConstraint=eastwest;" parent="zQ7XzDFX-CdMLgZaWSg_-127" vertex="1">
          <mxGeometry y="26" width="240" height="26" as="geometry" />
        </mxCell>
        <mxCell id="zQ7XzDFX-CdMLgZaWSg_-129" value="u_int16_t&#x9;&#x9; c_refcount;" style="text;html=1;strokeColor=none;fillColor=none;align=left;verticalAlign=top;spacingLeft=4;spacingRight=4;whiteSpace=wrap;overflow=hidden;rotatable=0;points=[[0,0.5],[1,0.5]];portConstraint=eastwest;" parent="zQ7XzDFX-CdMLgZaWSg_-127" vertex="1">
          <mxGeometry y="52" width="240" height="26" as="geometry" />
        </mxCell>
        <mxCell id="zQ7XzDFX-CdMLgZaWSg_-130" value="u_int16_t&#x9;&#x9; c_index;" style="text;html=1;strokeColor=none;fillColor=none;align=left;verticalAlign=top;spacingLeft=4;spacingRight=4;whiteSpace=wrap;overflow=hidden;rotatable=0;points=[[0,0.5],[1,0.5]];portConstraint=eastwest;" parent="zQ7XzDFX-CdMLgZaWSg_-127" vertex="1">
          <mxGeometry y="78" width="240" height="26" as="geometry" />
        </mxCell>
        <mxCell id="zQ7XzDFX-CdMLgZaWSg_-131" value="u_int8_t&#x9;&#x9; c_protocol;" style="text;html=1;strokeColor=none;fillColor=none;align=left;verticalAlign=top;spacingLeft=4;spacingRight=4;whiteSpace=wrap;overflow=hidden;rotatable=0;points=[[0,0.5],[1,0.5]];portConstraint=eastwest;" parent="zQ7XzDFX-CdMLgZaWSg_-127" vertex="1">
          <mxGeometry y="104" width="240" height="26" as="geometry" />
        </mxCell>
        <mxCell id="zQ7XzDFX-CdMLgZaWSg_-135" value="u_int8_t&#x9; &lt;span style=&quot;&quot;&gt;&lt;span style=&quot;white-space: pre;&quot;&gt;&amp;nbsp;&amp;nbsp;&amp;nbsp;&amp;nbsp;&lt;/span&gt;&lt;/span&gt; c_id_subtype;" style="text;html=1;strokeColor=none;fillColor=none;align=left;verticalAlign=top;spacingLeft=4;spacingRight=4;whiteSpace=wrap;overflow=hidden;rotatable=0;points=[[0,0.5],[1,0.5]];portConstraint=eastwest;" parent="zQ7XzDFX-CdMLgZaWSg_-127" vertex="1">
          <mxGeometry y="130" width="240" height="26" as="geometry" />
        </mxCell>
        <mxCell id="zQ7XzDFX-CdMLgZaWSg_-136" value="char&#x9;&#x9;&#x9;*c_id;" style="text;html=1;strokeColor=none;fillColor=none;align=left;verticalAlign=top;spacingLeft=4;spacingRight=4;whiteSpace=wrap;overflow=hidden;rotatable=0;points=[[0,0.5],[1,0.5]];portConstraint=eastwest;" parent="zQ7XzDFX-CdMLgZaWSg_-127" vertex="1">
          <mxGeometry y="156" width="240" height="26" as="geometry" />
        </mxCell>
        <mxCell id="zQ7XzDFX-CdMLgZaWSg_-137" value="int&#x9;&#x9;&#x9; c_id_len;" style="text;html=1;strokeColor=none;fillColor=none;align=left;verticalAlign=top;spacingLeft=4;spacingRight=4;whiteSpace=wrap;overflow=hidden;rotatable=0;points=[[0,0.5],[1,0.5]];portConstraint=eastwest;" parent="zQ7XzDFX-CdMLgZaWSg_-127" vertex="1">
          <mxGeometry y="182" width="240" height="26" as="geometry" />
        </mxCell>
        <mxCell id="zQ7XzDFX-CdMLgZaWSg_-138" value="char&#x9;&#x9;&#x9;*c_name;" style="text;html=1;strokeColor=none;fillColor=none;align=left;verticalAlign=top;spacingLeft=4;spacingRight=4;whiteSpace=wrap;overflow=hidden;rotatable=0;points=[[0,0.5],[1,0.5]];portConstraint=eastwest;" parent="zQ7XzDFX-CdMLgZaWSg_-127" vertex="1">
          <mxGeometry y="208" width="240" height="26" as="geometry" />
        </mxCell>
        <mxCell id="zQ7XzDFX-CdMLgZaWSg_-139" value="char&#x9;&#x9;&#x9;*c_descr;" style="text;html=1;strokeColor=none;fillColor=none;align=left;verticalAlign=top;spacingLeft=4;spacingRight=4;whiteSpace=wrap;overflow=hidden;rotatable=0;points=[[0,0.5],[1,0.5]];portConstraint=eastwest;" parent="zQ7XzDFX-CdMLgZaWSg_-127" vertex="1">
          <mxGeometry y="234" width="240" height="26" as="geometry" />
        </mxCell>
        <mxCell id="zQ7XzDFX-CdMLgZaWSg_-140" value="u_int16_t&#x9;&#x9; c_cap_available;" style="text;html=1;strokeColor=none;fillColor=none;align=left;verticalAlign=top;spacingLeft=4;spacingRight=4;whiteSpace=wrap;overflow=hidden;rotatable=0;points=[[0,0.5],[1,0.5]];portConstraint=eastwest;" parent="zQ7XzDFX-CdMLgZaWSg_-127" vertex="1">
          <mxGeometry y="260" width="240" height="26" as="geometry" />
        </mxCell>
        <mxCell id="zQ7XzDFX-CdMLgZaWSg_-141" value="u_int16_t&#x9;&#x9; c_cap_enabled;" style="text;html=1;strokeColor=none;fillColor=none;align=left;verticalAlign=top;spacingLeft=4;spacingRight=4;whiteSpace=wrap;overflow=hidden;rotatable=0;points=[[0,0.5],[1,0.5]];portConstraint=eastwest;" parent="zQ7XzDFX-CdMLgZaWSg_-127" vertex="1">
          <mxGeometry y="286" width="240" height="26" as="geometry" />
        </mxCell>
        <mxCell id="zQ7XzDFX-CdMLgZaWSg_-142" value="u_int16_t&#x9;&#x9; c_ttl;" style="text;html=1;strokeColor=none;fillColor=none;align=left;verticalAlign=top;spacingLeft=4;spacingRight=4;whiteSpace=wrap;overflow=hidden;rotatable=0;points=[[0,0.5],[1,0.5]];portConstraint=eastwest;" parent="zQ7XzDFX-CdMLgZaWSg_-127" vertex="1">
          <mxGeometry y="312" width="240" height="26" as="geometry" />
        </mxCell>
        <mxCell id="zQ7XzDFX-CdMLgZaWSg_-143" value="TAILQ_HEAD(, lldpd_mgmt) c_mgmt;" style="text;html=1;strokeColor=none;fillColor=none;align=left;verticalAlign=top;spacingLeft=4;spacingRight=4;whiteSpace=wrap;overflow=hidden;rotatable=0;points=[[0,0.5],[1,0.5]];portConstraint=eastwest;" parent="zQ7XzDFX-CdMLgZaWSg_-127" vertex="1">
          <mxGeometry y="338" width="240" height="26" as="geometry" />
        </mxCell>
        <mxCell id="zQ7XzDFX-CdMLgZaWSg_-132" value="" style="line;html=1;strokeWidth=1;fillColor=none;align=left;verticalAlign=middle;spacingTop=-1;spacingLeft=3;spacingRight=3;rotatable=0;labelPosition=right;points=[];portConstraint=eastwest;" parent="zQ7XzDFX-CdMLgZaWSg_-127" vertex="1">
          <mxGeometry y="364" width="240" height="8" as="geometry" />
        </mxCell>
        <mxCell id="zQ7XzDFX-CdMLgZaWSg_-133" value="+ method(type): type" style="text;html=1;strokeColor=none;fillColor=none;align=left;verticalAlign=top;spacingLeft=4;spacingRight=4;whiteSpace=wrap;overflow=hidden;rotatable=0;points=[[0,0.5],[1,0.5]];portConstraint=eastwest;" parent="zQ7XzDFX-CdMLgZaWSg_-127" vertex="1">
          <mxGeometry y="372" width="240" height="26" as="geometry" />
        </mxCell>
        <mxCell id="zQ7XzDFX-CdMLgZaWSg_-134" value="+ method(type): type" style="text;html=1;strokeColor=none;fillColor=none;align=left;verticalAlign=top;spacingLeft=4;spacingRight=4;whiteSpace=wrap;overflow=hidden;rotatable=0;points=[[0,0.5],[1,0.5]];portConstraint=eastwest;" parent="zQ7XzDFX-CdMLgZaWSg_-127" vertex="1">
          <mxGeometry y="398" width="240" height="26" as="geometry" />
        </mxCell>
        <mxCell id="zQ7XzDFX-CdMLgZaWSg_-145" value="" style="endArrow=classic;html=1;rounded=0;entryX=1;entryY=0.5;entryDx=0;entryDy=0;" parent="1" edge="1">
          <mxGeometry width="50" height="50" relative="1" as="geometry">
            <mxPoint x="2450" y="531" as="sourcePoint" />
            <mxPoint x="2300" y="530" as="targetPoint" />
          </mxGeometry>
        </mxCell>
        <mxCell id="zQ7XzDFX-CdMLgZaWSg_-146" value="1" style="edgeLabel;html=1;align=center;verticalAlign=middle;resizable=0;points=[];" parent="zQ7XzDFX-CdMLgZaWSg_-145" vertex="1" connectable="0">
          <mxGeometry x="-0.3018" y="1" relative="1" as="geometry">
            <mxPoint as="offset" />
          </mxGeometry>
        </mxCell>
        <mxCell id="zQ7XzDFX-CdMLgZaWSg_-147" value="" style="endArrow=classic;html=1;rounded=0;entryX=1;entryY=0.5;entryDx=0;entryDy=0;" parent="1" edge="1">
          <mxGeometry width="50" height="50" relative="1" as="geometry">
            <mxPoint x="2450" y="501" as="sourcePoint" />
            <mxPoint x="2300" y="500" as="targetPoint" />
          </mxGeometry>
        </mxCell>
        <mxCell id="zQ7XzDFX-CdMLgZaWSg_-148" value="1" style="edgeLabel;html=1;align=center;verticalAlign=middle;resizable=0;points=[];" parent="zQ7XzDFX-CdMLgZaWSg_-147" vertex="1" connectable="0">
          <mxGeometry x="-0.3018" y="1" relative="1" as="geometry">
            <mxPoint as="offset" />
          </mxGeometry>
        </mxCell>
        <mxCell id="zQ7XzDFX-CdMLgZaWSg_-149" value="" style="endArrow=classic;html=1;rounded=0;entryX=1;entryY=0.5;entryDx=0;entryDy=0;" parent="1" edge="1">
          <mxGeometry width="50" height="50" relative="1" as="geometry">
            <mxPoint x="1870" y="1041" as="sourcePoint" />
            <mxPoint x="1720" y="1040" as="targetPoint" />
          </mxGeometry>
        </mxCell>
        <mxCell id="zQ7XzDFX-CdMLgZaWSg_-150" value="LLDP_CAP_BRIDGE | LLDP_CAP_WLAN |&#xa;        LLDP_CAP_ROUTER | LLDP_CAP_STATION;" style="edgeLabel;html=1;align=center;verticalAlign=middle;resizable=0;points=[];" parent="zQ7XzDFX-CdMLgZaWSg_-149" vertex="1" connectable="0">
          <mxGeometry x="-0.3018" y="1" relative="1" as="geometry">
            <mxPoint x="52" y="-22" as="offset" />
          </mxGeometry>
        </mxCell>
        <mxCell id="zQ7XzDFX-CdMLgZaWSg_-153" value="" style="edgeStyle=elbowEdgeStyle;elbow=horizontal;endArrow=classic;html=1;curved=0;rounded=0;endSize=8;startSize=8;exitX=1;exitY=0.5;exitDx=0;exitDy=0;" parent="1" source="zQ7XzDFX-CdMLgZaWSg_-143" edge="1">
          <mxGeometry width="50" height="50" relative="1" as="geometry">
            <mxPoint x="1890" y="1180" as="sourcePoint" />
            <mxPoint x="1850" y="1200" as="targetPoint" />
          </mxGeometry>
        </mxCell>
        <mxCell id="zQ7XzDFX-CdMLgZaWSg_-154" style="edgeStyle=orthogonalEdgeStyle;rounded=0;orthogonalLoop=1;jettySize=auto;html=1;exitX=1;exitY=0.5;exitDx=0;exitDy=0;entryX=0;entryY=0.044;entryDx=0;entryDy=0;entryPerimeter=0;" parent="1" source="zQ7XzDFX-CdMLgZaWSg_-34" target="zQ7XzDFX-CdMLgZaWSg_-127" edge="1">
          <mxGeometry relative="1" as="geometry" />
        </mxCell>
        <mxCell id="zQ7XzDFX-CdMLgZaWSg_-155" value="" style="endArrow=classic;html=1;rounded=0;entryX=1;entryY=0.5;entryDx=0;entryDy=0;" parent="1" target="zQ7XzDFX-CdMLgZaWSg_-129" edge="1">
          <mxGeometry width="50" height="50" relative="1" as="geometry">
            <mxPoint x="1850" y="825" as="sourcePoint" />
            <mxPoint x="1880" y="810" as="targetPoint" />
          </mxGeometry>
        </mxCell>
        <mxCell id="zQ7XzDFX-CdMLgZaWSg_-156" value="++" style="edgeLabel;html=1;align=center;verticalAlign=middle;resizable=0;points=[];" parent="zQ7XzDFX-CdMLgZaWSg_-155" vertex="1" connectable="0">
          <mxGeometry x="-0.4228" y="1" relative="1" as="geometry">
            <mxPoint as="offset" />
          </mxGeometry>
        </mxCell>
        <mxCell id="zQ7XzDFX-CdMLgZaWSg_-157" value="&lt;div&gt;static struct protocol protos[] =&lt;/div&gt;&lt;div&gt;{&lt;/div&gt;&lt;div&gt;&lt;span style=&quot;white-space: pre;&quot;&gt;&amp;nbsp;&amp;nbsp;&amp;nbsp;&amp;nbsp;&lt;/span&gt;{ LLDPD_MODE_LLDP, 1, &quot;LLDP&quot;, &#39;l&#39;, lldp_send, lldp_decode, NULL,&lt;/div&gt;&lt;div&gt;&lt;span style=&quot;&quot;&gt;&lt;span style=&quot;white-space: pre;&quot;&gt;&amp;nbsp;&amp;nbsp;&amp;nbsp;&amp;nbsp;&lt;/span&gt;&lt;/span&gt;&amp;nbsp; LLDP_MULTICAST_ADDR },&lt;/div&gt;" style="rounded=0;whiteSpace=wrap;html=1;align=left;" parent="1" vertex="1">
          <mxGeometry x="1590" y="-190" width="270" height="80" as="geometry" />
        </mxCell>
        <mxCell id="zQ7XzDFX-CdMLgZaWSg_-158" style="edgeStyle=orthogonalEdgeStyle;rounded=0;orthogonalLoop=1;jettySize=auto;html=1;exitX=1;exitY=0.5;exitDx=0;exitDy=0;entryX=0.5;entryY=1;entryDx=0;entryDy=0;" parent="1" source="zQ7XzDFX-CdMLgZaWSg_-21" target="zQ7XzDFX-CdMLgZaWSg_-157" edge="1">
          <mxGeometry relative="1" as="geometry" />
        </mxCell>
        <mxCell id="zQ7XzDFX-CdMLgZaWSg_-159" value="libevent" style="rounded=1;whiteSpace=wrap;html=1;" parent="1" vertex="1">
          <mxGeometry x="-20" y="-60" width="1020" height="60" as="geometry" />
        </mxCell>
        <mxCell id="zQ7XzDFX-CdMLgZaWSg_-161" style="edgeStyle=orthogonalEdgeStyle;rounded=0;orthogonalLoop=1;jettySize=auto;html=1;exitX=0;exitY=0.5;exitDx=0;exitDy=0;entryX=0.608;entryY=1.025;entryDx=0;entryDy=0;entryPerimeter=0;" parent="1" source="zQ7XzDFX-CdMLgZaWSg_-28" target="zQ7XzDFX-CdMLgZaWSg_-159" edge="1">
          <mxGeometry relative="1" as="geometry" />
        </mxCell>
        <mxCell id="zQ7XzDFX-CdMLgZaWSg_-162" value="定时器事件" style="edgeLabel;html=1;align=center;verticalAlign=middle;resizable=0;points=[];" parent="zQ7XzDFX-CdMLgZaWSg_-161" vertex="1" connectable="0">
          <mxGeometry x="0.3873" y="3" relative="1" as="geometry">
            <mxPoint as="offset" />
          </mxGeometry>
        </mxCell>
        <mxCell id="zQ7XzDFX-CdMLgZaWSg_-167" value="EV_TIMEOUT" style="swimlane;fontStyle=1;align=center;verticalAlign=middle;childLayout=stackLayout;horizontal=1;startSize=30;horizontalStack=0;resizeParent=0;resizeLast=1;container=0;fontColor=#000000;collapsible=0;rounded=1;arcSize=30;strokeColor=#ff0000;fillColor=#ffffc0;swimlaneFillColor=#ffffc0;dropTarget=0;" parent="1" vertex="1">
          <mxGeometry x="520" y="-180" width="160" height="60" as="geometry" />
        </mxCell>
        <mxCell id="zQ7XzDFX-CdMLgZaWSg_-168" value="levent_update_and_send" style="text;html=1;strokeColor=none;fillColor=none;align=center;verticalAlign=middle;spacingLeft=4;spacingRight=4;whiteSpace=wrap;overflow=hidden;rotatable=0;fontColor=#000000;" parent="zQ7XzDFX-CdMLgZaWSg_-167" vertex="1">
          <mxGeometry y="30" width="160" height="30" as="geometry" />
        </mxCell>
        <mxCell id="zQ7XzDFX-CdMLgZaWSg_-172" value="levent_update_and_send" style="text;html=1;strokeColor=none;fillColor=none;align=center;verticalAlign=middle;spacingLeft=4;spacingRight=4;whiteSpace=wrap;overflow=hidden;rotatable=0;fontColor=#000000;" parent="zQ7XzDFX-CdMLgZaWSg_-167" vertex="1">
          <mxGeometry y="60" width="160" as="geometry" />
        </mxCell>
        <mxCell id="zQ7XzDFX-CdMLgZaWSg_-169" value="" style="edgeStyle=orthogonalEdgeStyle;html=1;verticalAlign=bottom;endArrow=open;endSize=8;strokeColor=#ff0000;rounded=0;" parent="1" source="zQ7XzDFX-CdMLgZaWSg_-167" edge="1">
          <mxGeometry relative="1" as="geometry">
            <mxPoint x="600" y="-60" as="targetPoint" />
          </mxGeometry>
        </mxCell>
        <mxCell id="zQ7XzDFX-CdMLgZaWSg_-176" value="cli" style="swimlane;fontStyle=1;align=center;verticalAlign=middle;childLayout=stackLayout;horizontal=1;startSize=30;horizontalStack=0;resizeParent=0;resizeLast=1;container=0;fontColor=#000000;collapsible=0;rounded=1;arcSize=30;strokeColor=#ff0000;fillColor=#ffffc0;swimlaneFillColor=#ffffc0;dropTarget=0;" parent="1" vertex="1">
          <mxGeometry x="705" y="-180" width="160" height="60" as="geometry" />
        </mxCell>
        <mxCell id="zQ7XzDFX-CdMLgZaWSg_-177" value="levent_ctl_accept" style="text;html=1;strokeColor=none;fillColor=none;align=center;verticalAlign=middle;spacingLeft=4;spacingRight=4;whiteSpace=wrap;overflow=hidden;rotatable=0;fontColor=#000000;" parent="zQ7XzDFX-CdMLgZaWSg_-176" vertex="1">
          <mxGeometry y="30" width="160" height="30" as="geometry" />
        </mxCell>
        <mxCell id="zQ7XzDFX-CdMLgZaWSg_-178" value="" style="edgeStyle=orthogonalEdgeStyle;html=1;verticalAlign=bottom;endArrow=open;endSize=8;strokeColor=#ff0000;rounded=0;" parent="1" source="zQ7XzDFX-CdMLgZaWSg_-176" edge="1">
          <mxGeometry relative="1" as="geometry">
            <mxPoint x="785" y="-60" as="targetPoint" />
          </mxGeometry>
        </mxCell>
        <mxCell id="zQ7XzDFX-CdMLgZaWSg_-179" style="edgeStyle=orthogonalEdgeStyle;rounded=0;orthogonalLoop=1;jettySize=auto;html=1;exitX=0;exitY=0.5;exitDx=0;exitDy=0;entryX=0.79;entryY=0.982;entryDx=0;entryDy=0;entryPerimeter=0;" parent="1" source="zQ7XzDFX-CdMLgZaWSg_-31" target="zQ7XzDFX-CdMLgZaWSg_-159" edge="1">
          <mxGeometry relative="1" as="geometry" />
        </mxCell>
        <mxCell id="zQ7XzDFX-CdMLgZaWSg_-180" value="a listening Unix socket" style="edgeLabel;html=1;align=center;verticalAlign=middle;resizable=0;points=[];" parent="zQ7XzDFX-CdMLgZaWSg_-179" vertex="1" connectable="0">
          <mxGeometry x="-0.1452" y="2" relative="1" as="geometry">
            <mxPoint as="offset" />
          </mxGeometry>
        </mxCell>
        <mxCell id="zQ7XzDFX-CdMLgZaWSg_-181" value="monitor" style="swimlane;fontStyle=1;align=center;verticalAlign=middle;childLayout=stackLayout;horizontal=1;startSize=30;horizontalStack=0;resizeParent=0;resizeLast=1;container=0;fontColor=#000000;collapsible=0;rounded=1;arcSize=30;strokeColor=#ff0000;fillColor=#ffffc0;swimlaneFillColor=#ffffc0;dropTarget=0;" parent="1" vertex="1">
          <mxGeometry x="890" y="-180" width="160" height="60" as="geometry" />
        </mxCell>
        <mxCell id="zQ7XzDFX-CdMLgZaWSg_-182" value="levent_priv" style="text;html=1;strokeColor=none;fillColor=none;align=center;verticalAlign=middle;spacingLeft=4;spacingRight=4;whiteSpace=wrap;overflow=hidden;rotatable=0;fontColor=#000000;" parent="zQ7XzDFX-CdMLgZaWSg_-181" vertex="1">
          <mxGeometry y="30" width="160" height="30" as="geometry" />
        </mxCell>
        <mxCell id="zQ7XzDFX-CdMLgZaWSg_-184" value="levent_priv" style="text;html=1;strokeColor=none;fillColor=none;align=center;verticalAlign=middle;spacingLeft=4;spacingRight=4;whiteSpace=wrap;overflow=hidden;rotatable=0;fontColor=#000000;" parent="zQ7XzDFX-CdMLgZaWSg_-181" vertex="1">
          <mxGeometry y="60" width="160" as="geometry" />
        </mxCell>
        <mxCell id="zQ7XzDFX-CdMLgZaWSg_-183" value="" style="edgeStyle=orthogonalEdgeStyle;html=1;verticalAlign=bottom;endArrow=open;endSize=8;strokeColor=#ff0000;rounded=0;" parent="1" source="zQ7XzDFX-CdMLgZaWSg_-181" edge="1">
          <mxGeometry relative="1" as="geometry">
            <mxPoint x="970" y="-60" as="targetPoint" />
          </mxGeometry>
        </mxCell>
        <mxCell id="vYLM52S1xDxIUOLyzjok-1" value="struct lldpd_hardware" style="swimlane;html=1;fontStyle=1;align=center;verticalAlign=top;childLayout=stackLayout;horizontal=1;startSize=26;horizontalStack=0;resizeParent=1;resizeLast=0;collapsible=1;marginBottom=0;swimlaneFillColor=#ffffff;rounded=0;shadow=0;comic=0;labelBackgroundColor=none;strokeWidth=1;fillColor=none;fontFamily=Verdana;fontSize=12" vertex="1" parent="1">
          <mxGeometry x="660" y="440" width="260" height="684" as="geometry" />
        </mxCell>
        <mxCell id="vYLM52S1xDxIUOLyzjok-2" value="struct lldpd&#x9;&#x9;*h_cfg;&lt;span style=&quot;&quot;&gt;&lt;span style=&quot;white-space: pre;&quot;&gt;&amp;nbsp;&amp;nbsp;&amp;nbsp;&amp;nbsp;&lt;/span&gt;&lt;/span&gt;" style="text;html=1;strokeColor=none;fillColor=none;align=left;verticalAlign=top;spacingLeft=4;spacingRight=4;whiteSpace=wrap;overflow=hidden;rotatable=0;points=[[0,0.5],[1,0.5]];portConstraint=eastwest;" vertex="1" parent="vYLM52S1xDxIUOLyzjok-1">
          <mxGeometry y="26" width="260" height="26" as="geometry" />
        </mxCell>
        <mxCell id="vYLM52S1xDxIUOLyzjok-3" value="int&#x9;&#x9;&#x9; h_ifindex" style="text;html=1;strokeColor=none;fillColor=none;align=left;verticalAlign=top;spacingLeft=4;spacingRight=4;whiteSpace=wrap;overflow=hidden;rotatable=0;points=[[0,0.5],[1,0.5]];portConstraint=eastwest;" vertex="1" parent="vYLM52S1xDxIUOLyzjok-1">
          <mxGeometry y="52" width="260" height="26" as="geometry" />
        </mxCell>
        <mxCell id="vYLM52S1xDxIUOLyzjok-4" value="char&#x9;&#x9;&#x9; h_ifname[IFNAMSIZ]" style="text;html=1;strokeColor=none;fillColor=none;align=left;verticalAlign=top;spacingLeft=4;spacingRight=4;whiteSpace=wrap;overflow=hidden;rotatable=0;points=[[0,0.5],[1,0.5]];portConstraint=eastwest;" vertex="1" parent="vYLM52S1xDxIUOLyzjok-1">
          <mxGeometry y="78" width="260" height="26" as="geometry" />
        </mxCell>
        <mxCell id="vYLM52S1xDxIUOLyzjok-5" value="void&#x9;&#x9;&#x9;*h_recv;&amp;nbsp;&amp;nbsp;" style="text;html=1;strokeColor=none;fillColor=none;align=left;verticalAlign=top;spacingLeft=4;spacingRight=4;whiteSpace=wrap;overflow=hidden;rotatable=0;points=[[0,0.5],[1,0.5]];portConstraint=eastwest;" vertex="1" parent="vYLM52S1xDxIUOLyzjok-1">
          <mxGeometry y="104" width="260" height="26" as="geometry" />
        </mxCell>
        <mxCell id="vYLM52S1xDxIUOLyzjok-6" value="int&#x9;&#x9;&#x9; h_sendfd;" style="text;html=1;strokeColor=none;fillColor=none;align=left;verticalAlign=top;spacingLeft=4;spacingRight=4;whiteSpace=wrap;overflow=hidden;rotatable=0;points=[[0,0.5],[1,0.5]];portConstraint=eastwest;" vertex="1" parent="vYLM52S1xDxIUOLyzjok-1">
          <mxGeometry y="130" width="260" height="26" as="geometry" />
        </mxCell>
        <mxCell id="vYLM52S1xDxIUOLyzjok-7" value="*" style="text;html=1;strokeColor=none;fillColor=none;align=left;verticalAlign=top;spacingLeft=4;spacingRight=4;whiteSpace=wrap;overflow=hidden;rotatable=0;points=[[0,0.5],[1,0.5]];portConstraint=eastwest;" vertex="1" parent="vYLM52S1xDxIUOLyzjok-1">
          <mxGeometry y="156" width="260" height="26" as="geometry" />
        </mxCell>
        <mxCell id="vYLM52S1xDxIUOLyzjok-8" value="char *c_mgmt_pattern;" style="text;html=1;strokeColor=none;fillColor=none;align=left;verticalAlign=top;spacingLeft=4;spacingRight=4;whiteSpace=wrap;overflow=hidden;rotatable=0;points=[[0,0.5],[1,0.5]];portConstraint=eastwest;" vertex="1" parent="vYLM52S1xDxIUOLyzjok-1">
          <mxGeometry y="182" width="260" height="26" as="geometry" />
        </mxCell>
        <mxCell id="vYLM52S1xDxIUOLyzjok-9" value="char *c_cid_pattern;" style="text;html=1;strokeColor=none;fillColor=none;align=left;verticalAlign=top;spacingLeft=4;spacingRight=4;whiteSpace=wrap;overflow=hidden;rotatable=0;points=[[0,0.5],[1,0.5]];portConstraint=eastwest;" vertex="1" parent="vYLM52S1xDxIUOLyzjok-1">
          <mxGeometry y="208" width="260" height="26" as="geometry" />
        </mxCell>
        <mxCell id="vYLM52S1xDxIUOLyzjok-10" value="char *c_iface_pattern;" style="text;html=1;strokeColor=none;fillColor=none;align=left;verticalAlign=top;spacingLeft=4;spacingRight=4;whiteSpace=wrap;overflow=hidden;rotatable=0;points=[[0,0.5],[1,0.5]];portConstraint=eastwest;" vertex="1" parent="vYLM52S1xDxIUOLyzjok-1">
          <mxGeometry y="234" width="260" height="26" as="geometry" />
        </mxCell>
        <mxCell id="vYLM52S1xDxIUOLyzjok-11" value="char *c_platform;" style="text;html=1;strokeColor=none;fillColor=none;align=left;verticalAlign=top;spacingLeft=4;spacingRight=4;whiteSpace=wrap;overflow=hidden;rotatable=0;points=[[0,0.5],[1,0.5]];portConstraint=eastwest;" vertex="1" parent="vYLM52S1xDxIUOLyzjok-1">
          <mxGeometry y="260" width="260" height="26" as="geometry" />
        </mxCell>
        <mxCell id="vYLM52S1xDxIUOLyzjok-12" value="char *c_description;" style="text;html=1;strokeColor=none;fillColor=none;align=left;verticalAlign=top;spacingLeft=4;spacingRight=4;whiteSpace=wrap;overflow=hidden;rotatable=0;points=[[0,0.5],[1,0.5]];portConstraint=eastwest;" vertex="1" parent="vYLM52S1xDxIUOLyzjok-1">
          <mxGeometry y="286" width="260" height="26" as="geometry" />
        </mxCell>
        <mxCell id="vYLM52S1xDxIUOLyzjok-13" value="char *c_hostname;" style="text;html=1;strokeColor=none;fillColor=none;align=left;verticalAlign=top;spacingLeft=4;spacingRight=4;whiteSpace=wrap;overflow=hidden;rotatable=0;points=[[0,0.5],[1,0.5]];portConstraint=eastwest;" vertex="1" parent="vYLM52S1xDxIUOLyzjok-1">
          <mxGeometry y="312" width="260" height="26" as="geometry" />
        </mxCell>
        <mxCell id="vYLM52S1xDxIUOLyzjok-14" value="int c_advertise_version;" style="text;html=1;strokeColor=none;fillColor=none;align=left;verticalAlign=top;spacingLeft=4;spacingRight=4;whiteSpace=wrap;overflow=hidden;rotatable=0;points=[[0,0.5],[1,0.5]];portConstraint=eastwest;" vertex="1" parent="vYLM52S1xDxIUOLyzjok-1">
          <mxGeometry y="338" width="260" height="26" as="geometry" />
        </mxCell>
        <mxCell id="vYLM52S1xDxIUOLyzjok-15" value="int c_set_ifdescr;&#x9;" style="text;html=1;strokeColor=none;fillColor=none;align=left;verticalAlign=top;spacingLeft=4;spacingRight=4;whiteSpace=wrap;overflow=hidden;rotatable=0;points=[[0,0.5],[1,0.5]];portConstraint=eastwest;" vertex="1" parent="vYLM52S1xDxIUOLyzjok-1">
          <mxGeometry y="364" width="260" height="26" as="geometry" />
        </mxCell>
        <mxCell id="vYLM52S1xDxIUOLyzjok-16" value="int c_promisc;&#x9;" style="text;html=1;strokeColor=none;fillColor=none;align=left;verticalAlign=top;spacingLeft=4;spacingRight=4;whiteSpace=wrap;overflow=hidden;rotatable=0;points=[[0,0.5],[1,0.5]];portConstraint=eastwest;" vertex="1" parent="vYLM52S1xDxIUOLyzjok-1">
          <mxGeometry y="390" width="260" height="26" as="geometry" />
        </mxCell>
        <mxCell id="vYLM52S1xDxIUOLyzjok-17" value="int c_cap_advertise;&#x9;" style="text;html=1;strokeColor=none;fillColor=none;align=left;verticalAlign=top;spacingLeft=4;spacingRight=4;whiteSpace=wrap;overflow=hidden;rotatable=0;points=[[0,0.5],[1,0.5]];portConstraint=eastwest;" vertex="1" parent="vYLM52S1xDxIUOLyzjok-1">
          <mxGeometry y="416" width="260" height="26" as="geometry" />
        </mxCell>
        <mxCell id="vYLM52S1xDxIUOLyzjok-18" value="int c_mgmt_advertise;&#x9;" style="text;html=1;strokeColor=none;fillColor=none;align=left;verticalAlign=top;spacingLeft=4;spacingRight=4;whiteSpace=wrap;overflow=hidden;rotatable=0;points=[[0,0.5],[1,0.5]];portConstraint=eastwest;" vertex="1" parent="vYLM52S1xDxIUOLyzjok-1">
          <mxGeometry y="442" width="260" height="26" as="geometry" />
        </mxCell>
        <mxCell id="vYLM52S1xDxIUOLyzjok-19" value="int c_noinventory;&#x9;" style="text;html=1;strokeColor=none;fillColor=none;align=left;verticalAlign=top;spacingLeft=4;spacingRight=4;whiteSpace=wrap;overflow=hidden;rotatable=0;points=[[0,0.5],[1,0.5]];portConstraint=eastwest;" vertex="1" parent="vYLM52S1xDxIUOLyzjok-1">
          <mxGeometry y="468" width="260" height="26" as="geometry" />
        </mxCell>
        <mxCell id="vYLM52S1xDxIUOLyzjok-20" value="int c_enable_fast_start;&#x9;" style="text;html=1;strokeColor=none;fillColor=none;align=left;verticalAlign=top;spacingLeft=4;spacingRight=4;whiteSpace=wrap;overflow=hidden;rotatable=0;points=[[0,0.5],[1,0.5]];portConstraint=eastwest;" vertex="1" parent="vYLM52S1xDxIUOLyzjok-1">
          <mxGeometry y="494" width="260" height="26" as="geometry" />
        </mxCell>
        <mxCell id="vYLM52S1xDxIUOLyzjok-21" value="int c_tx_fast_init;" style="text;html=1;strokeColor=none;fillColor=none;align=left;verticalAlign=top;spacingLeft=4;spacingRight=4;whiteSpace=wrap;overflow=hidden;rotatable=0;points=[[0,0.5],[1,0.5]];portConstraint=eastwest;" vertex="1" parent="vYLM52S1xDxIUOLyzjok-1">
          <mxGeometry y="520" width="260" height="26" as="geometry" />
        </mxCell>
        <mxCell id="vYLM52S1xDxIUOLyzjok-22" value="int c_tx_fast_interval;" style="text;html=1;strokeColor=none;fillColor=none;align=left;verticalAlign=top;spacingLeft=4;spacingRight=4;whiteSpace=wrap;overflow=hidden;rotatable=0;points=[[0,0.5],[1,0.5]];portConstraint=eastwest;" vertex="1" parent="vYLM52S1xDxIUOLyzjok-1">
          <mxGeometry y="546" width="260" height="26" as="geometry" />
        </mxCell>
        <mxCell id="vYLM52S1xDxIUOLyzjok-23" value="int c_tx_hold;" style="text;html=1;strokeColor=none;fillColor=none;align=left;verticalAlign=top;spacingLeft=4;spacingRight=4;whiteSpace=wrap;overflow=hidden;rotatable=0;points=[[0,0.5],[1,0.5]];portConstraint=eastwest;" vertex="1" parent="vYLM52S1xDxIUOLyzjok-1">
          <mxGeometry y="572" width="260" height="26" as="geometry" />
        </mxCell>
        <mxCell id="vYLM52S1xDxIUOLyzjok-24" value="TAILQ_HEAD(, lldpd_port) h_rports;" style="text;html=1;strokeColor=none;fillColor=none;align=left;verticalAlign=top;spacingLeft=4;spacingRight=4;whiteSpace=wrap;overflow=hidden;rotatable=0;points=[[0,0.5],[1,0.5]];portConstraint=eastwest;" vertex="1" parent="vYLM52S1xDxIUOLyzjok-1">
          <mxGeometry y="598" width="260" height="26" as="geometry" />
        </mxCell>
        <mxCell id="vYLM52S1xDxIUOLyzjok-25" value="struct lldpd_port&#x9; h_lport" style="text;html=1;strokeColor=none;fillColor=none;align=left;verticalAlign=top;spacingLeft=4;spacingRight=4;whiteSpace=wrap;overflow=hidden;rotatable=0;points=[[0,0.5],[1,0.5]];portConstraint=eastwest;" vertex="1" parent="vYLM52S1xDxIUOLyzjok-1">
          <mxGeometry y="624" width="260" height="26" as="geometry" />
        </mxCell>
        <mxCell id="vYLM52S1xDxIUOLyzjok-26" value="" style="line;html=1;strokeWidth=1;fillColor=none;align=left;verticalAlign=middle;spacingTop=-1;spacingLeft=3;spacingRight=3;rotatable=0;labelPosition=right;points=[];portConstraint=eastwest;" vertex="1" parent="vYLM52S1xDxIUOLyzjok-1">
          <mxGeometry y="650" width="260" height="8" as="geometry" />
        </mxCell>
        <mxCell id="vYLM52S1xDxIUOLyzjok-27" style="edgeStyle=orthogonalEdgeStyle;rounded=0;orthogonalLoop=1;jettySize=auto;html=1;exitX=0;exitY=0.5;exitDx=0;exitDy=0;entryX=1;entryY=0.015;entryDx=0;entryDy=0;entryPerimeter=0;" edge="1" parent="1" source="zQ7XzDFX-CdMLgZaWSg_-22" target="vYLM52S1xDxIUOLyzjok-1">
          <mxGeometry relative="1" as="geometry" />
        </mxCell>
        <mxCell id="vYLM52S1xDxIUOLyzjok-28" value="struct lldpd_hardware" style="swimlane;fontStyle=0;childLayout=stackLayout;horizontal=1;startSize=26;fillColor=none;horizontalStack=0;resizeParent=1;resizeParentMax=0;resizeLast=0;collapsible=1;marginBottom=0;whiteSpace=wrap;html=1;" vertex="1" parent="1">
          <mxGeometry x="380" y="440" width="140" height="104" as="geometry" />
        </mxCell>
        <mxCell id="vYLM52S1xDxIUOLyzjok-29" value="+ field: type" style="text;strokeColor=none;fillColor=none;align=left;verticalAlign=top;spacingLeft=4;spacingRight=4;overflow=hidden;rotatable=0;points=[[0,0.5],[1,0.5]];portConstraint=eastwest;whiteSpace=wrap;html=1;" vertex="1" parent="vYLM52S1xDxIUOLyzjok-28">
          <mxGeometry y="26" width="140" height="26" as="geometry" />
        </mxCell>
        <mxCell id="vYLM52S1xDxIUOLyzjok-30" value="+ field: type" style="text;strokeColor=none;fillColor=none;align=left;verticalAlign=top;spacingLeft=4;spacingRight=4;overflow=hidden;rotatable=0;points=[[0,0.5],[1,0.5]];portConstraint=eastwest;whiteSpace=wrap;html=1;" vertex="1" parent="vYLM52S1xDxIUOLyzjok-28">
          <mxGeometry y="52" width="140" height="26" as="geometry" />
        </mxCell>
        <mxCell id="vYLM52S1xDxIUOLyzjok-31" value="+ field: type" style="text;strokeColor=none;fillColor=none;align=left;verticalAlign=top;spacingLeft=4;spacingRight=4;overflow=hidden;rotatable=0;points=[[0,0.5],[1,0.5]];portConstraint=eastwest;whiteSpace=wrap;html=1;" vertex="1" parent="vYLM52S1xDxIUOLyzjok-28">
          <mxGeometry y="78" width="140" height="26" as="geometry" />
        </mxCell>
        <mxCell id="vYLM52S1xDxIUOLyzjok-32" style="edgeStyle=orthogonalEdgeStyle;rounded=0;orthogonalLoop=1;jettySize=auto;html=1;entryX=1.029;entryY=0.132;entryDx=0;entryDy=0;entryPerimeter=0;exitX=-0.012;exitY=0.02;exitDx=0;exitDy=0;exitPerimeter=0;" edge="1" parent="1" source="vYLM52S1xDxIUOLyzjok-1" target="vYLM52S1xDxIUOLyzjok-28">
          <mxGeometry relative="1" as="geometry" />
        </mxCell>
        <mxCell id="vYLM52S1xDxIUOLyzjok-33" value="" style="endArrow=classic;html=1;rounded=0;entryX=1;entryY=0.5;entryDx=0;entryDy=0;" edge="1" parent="1" target="vYLM52S1xDxIUOLyzjok-4">
          <mxGeometry width="50" height="50" relative="1" as="geometry">
            <mxPoint x="1090" y="531" as="sourcePoint" />
            <mxPoint x="1100" y="550" as="targetPoint" />
          </mxGeometry>
        </mxCell>
        <mxCell id="vYLM52S1xDxIUOLyzjok-34" value="ens32" style="edgeLabel;html=1;align=center;verticalAlign=middle;resizable=0;points=[];" vertex="1" connectable="0" parent="vYLM52S1xDxIUOLyzjok-33">
          <mxGeometry x="-0.257" y="4" relative="1" as="geometry">
            <mxPoint as="offset" />
          </mxGeometry>
        </mxCell>
        <mxCell id="vYLM52S1xDxIUOLyzjok-35" value="struct lldpd_port" style="swimlane;fontStyle=0;childLayout=stackLayout;horizontal=1;startSize=26;fillColor=none;horizontalStack=0;resizeParent=1;resizeParentMax=0;resizeLast=0;collapsible=1;marginBottom=0;whiteSpace=wrap;html=1;" vertex="1" parent="1">
          <mxGeometry x="1040" y="1200" width="200" height="130" as="geometry" />
        </mxCell>
        <mxCell id="vYLM52S1xDxIUOLyzjok-36" value="struct lldpd_chassis&#x9;*p_chassis;" style="text;strokeColor=none;fillColor=none;align=left;verticalAlign=top;spacingLeft=4;spacingRight=4;overflow=hidden;rotatable=0;points=[[0,0.5],[1,0.5]];portConstraint=eastwest;whiteSpace=wrap;html=1;" vertex="1" parent="vYLM52S1xDxIUOLyzjok-35">
          <mxGeometry y="26" width="200" height="26" as="geometry" />
        </mxCell>
        <mxCell id="vYLM52S1xDxIUOLyzjok-37" value="char&#x9;&#x9;&#x9;*p_id;" style="text;strokeColor=none;fillColor=none;align=left;verticalAlign=top;spacingLeft=4;spacingRight=4;overflow=hidden;rotatable=0;points=[[0,0.5],[1,0.5]];portConstraint=eastwest;whiteSpace=wrap;html=1;" vertex="1" parent="vYLM52S1xDxIUOLyzjok-35">
          <mxGeometry y="52" width="200" height="26" as="geometry" />
        </mxCell>
        <mxCell id="vYLM52S1xDxIUOLyzjok-59" value="char&#x9;&#x9;&#x9;*p_id;" style="text;strokeColor=none;fillColor=none;align=left;verticalAlign=top;spacingLeft=4;spacingRight=4;overflow=hidden;rotatable=0;points=[[0,0.5],[1,0.5]];portConstraint=eastwest;whiteSpace=wrap;html=1;" vertex="1" parent="vYLM52S1xDxIUOLyzjok-35">
          <mxGeometry y="78" width="200" height="26" as="geometry" />
        </mxCell>
        <mxCell id="vYLM52S1xDxIUOLyzjok-38" value="+ field: type" style="text;strokeColor=none;fillColor=none;align=left;verticalAlign=top;spacingLeft=4;spacingRight=4;overflow=hidden;rotatable=0;points=[[0,0.5],[1,0.5]];portConstraint=eastwest;whiteSpace=wrap;html=1;" vertex="1" parent="vYLM52S1xDxIUOLyzjok-35">
          <mxGeometry y="104" width="200" height="26" as="geometry" />
        </mxCell>
        <mxCell id="vYLM52S1xDxIUOLyzjok-39" style="edgeStyle=orthogonalEdgeStyle;rounded=0;orthogonalLoop=1;jettySize=auto;html=1;exitX=1;exitY=0.5;exitDx=0;exitDy=0;entryX=-0.004;entryY=0.188;entryDx=0;entryDy=0;entryPerimeter=0;" edge="1" parent="1" source="vYLM52S1xDxIUOLyzjok-25" target="vYLM52S1xDxIUOLyzjok-35">
          <mxGeometry relative="1" as="geometry" />
        </mxCell>
        <mxCell id="vYLM52S1xDxIUOLyzjok-40" style="edgeStyle=orthogonalEdgeStyle;rounded=0;orthogonalLoop=1;jettySize=auto;html=1;exitX=1;exitY=0.5;exitDx=0;exitDy=0;entryX=0.002;entryY=0.023;entryDx=0;entryDy=0;entryPerimeter=0;" edge="1" parent="1" source="vYLM52S1xDxIUOLyzjok-36" target="zQ7XzDFX-CdMLgZaWSg_-127">
          <mxGeometry relative="1" as="geometry" />
        </mxCell>
        <mxCell id="vYLM52S1xDxIUOLyzjok-41" value="Classname" style="swimlane;fontStyle=0;childLayout=stackLayout;horizontal=1;startSize=26;fillColor=none;horizontalStack=0;resizeParent=1;resizeParentMax=0;resizeLast=0;collapsible=1;marginBottom=0;whiteSpace=wrap;html=1;" vertex="1" parent="1">
          <mxGeometry x="310" y="1076" width="140" height="104" as="geometry" />
        </mxCell>
        <mxCell id="vYLM52S1xDxIUOLyzjok-42" value="+ field: type" style="text;strokeColor=none;fillColor=none;align=left;verticalAlign=top;spacingLeft=4;spacingRight=4;overflow=hidden;rotatable=0;points=[[0,0.5],[1,0.5]];portConstraint=eastwest;whiteSpace=wrap;html=1;" vertex="1" parent="vYLM52S1xDxIUOLyzjok-41">
          <mxGeometry y="26" width="140" height="26" as="geometry" />
        </mxCell>
        <mxCell id="vYLM52S1xDxIUOLyzjok-43" value="+ field: type" style="text;strokeColor=none;fillColor=none;align=left;verticalAlign=top;spacingLeft=4;spacingRight=4;overflow=hidden;rotatable=0;points=[[0,0.5],[1,0.5]];portConstraint=eastwest;whiteSpace=wrap;html=1;" vertex="1" parent="vYLM52S1xDxIUOLyzjok-41">
          <mxGeometry y="52" width="140" height="26" as="geometry" />
        </mxCell>
        <mxCell id="vYLM52S1xDxIUOLyzjok-44" value="+ field: type" style="text;strokeColor=none;fillColor=none;align=left;verticalAlign=top;spacingLeft=4;spacingRight=4;overflow=hidden;rotatable=0;points=[[0,0.5],[1,0.5]];portConstraint=eastwest;whiteSpace=wrap;html=1;" vertex="1" parent="vYLM52S1xDxIUOLyzjok-41">
          <mxGeometry y="78" width="140" height="26" as="geometry" />
        </mxCell>
        <mxCell id="vYLM52S1xDxIUOLyzjok-45" style="edgeStyle=orthogonalEdgeStyle;rounded=0;orthogonalLoop=1;jettySize=auto;html=1;exitX=0;exitY=0.5;exitDx=0;exitDy=0;entryX=1;entryY=0.178;entryDx=0;entryDy=0;entryPerimeter=0;" edge="1" parent="1" source="vYLM52S1xDxIUOLyzjok-24" target="vYLM52S1xDxIUOLyzjok-41">
          <mxGeometry relative="1" as="geometry" />
        </mxCell>
        <mxCell id="vYLM52S1xDxIUOLyzjok-47" value="TAILQ_INIT" style="swimlane;fontStyle=0;childLayout=stackLayout;horizontal=1;startSize=26;fillColor=none;horizontalStack=0;resizeParent=1;resizeParentMax=0;resizeLast=0;collapsible=1;marginBottom=0;whiteSpace=wrap;html=1;" vertex="1" parent="1">
          <mxGeometry x="380" y="597" width="140" height="110" as="geometry" />
        </mxCell>
        <mxCell id="vYLM52S1xDxIUOLyzjok-48" value="&lt;div&gt;struct lldpd_events {&lt;/div&gt;&lt;div&gt;&lt;span style=&quot;white-space: pre;&quot;&gt;&amp;nbsp;&amp;nbsp;&amp;nbsp;&amp;nbsp;&lt;/span&gt;TAILQ_ENTRY(lldpd_events) next;&lt;/div&gt;&lt;div&gt;&lt;span style=&quot;&quot;&gt;&lt;span style=&quot;white-space: pre;&quot;&gt;&amp;nbsp;&amp;nbsp;&amp;nbsp;&amp;nbsp;&lt;/span&gt;&lt;/span&gt;struct event *ev;&lt;/div&gt;&lt;div&gt;};&lt;/div&gt;" style="text;strokeColor=none;fillColor=none;align=left;verticalAlign=top;spacingLeft=4;spacingRight=4;overflow=hidden;rotatable=0;points=[[0,0.5],[1,0.5]];portConstraint=eastwest;whiteSpace=wrap;html=1;" vertex="1" parent="vYLM52S1xDxIUOLyzjok-47">
          <mxGeometry y="26" width="140" height="84" as="geometry" />
        </mxCell>
        <mxCell id="vYLM52S1xDxIUOLyzjok-51" style="edgeStyle=orthogonalEdgeStyle;rounded=0;orthogonalLoop=1;jettySize=auto;html=1;exitX=0;exitY=0.5;exitDx=0;exitDy=0;entryX=0.993;entryY=0.173;entryDx=0;entryDy=0;entryPerimeter=0;" edge="1" parent="1" source="vYLM52S1xDxIUOLyzjok-5" target="vYLM52S1xDxIUOLyzjok-47">
          <mxGeometry relative="1" as="geometry" />
        </mxCell>
        <mxCell id="vYLM52S1xDxIUOLyzjok-58" style="edgeStyle=orthogonalEdgeStyle;rounded=0;orthogonalLoop=1;jettySize=auto;html=1;exitX=0;exitY=0.5;exitDx=0;exitDy=0;entryX=0.098;entryY=1;entryDx=0;entryDy=0;entryPerimeter=0;" edge="1" parent="1" source="vYLM52S1xDxIUOLyzjok-52" target="zQ7XzDFX-CdMLgZaWSg_-159">
          <mxGeometry relative="1" as="geometry" />
        </mxCell>
        <mxCell id="vYLM52S1xDxIUOLyzjok-52" value="fd&lt;br&gt;SOCK_RAW LLDP" style="ellipse;whiteSpace=wrap;html=1;" vertex="1" parent="1">
          <mxGeometry x="210" y="597" width="120" height="80" as="geometry" />
        </mxCell>
        <mxCell id="vYLM52S1xDxIUOLyzjok-53" style="edgeStyle=orthogonalEdgeStyle;rounded=0;orthogonalLoop=1;jettySize=auto;html=1;exitX=0;exitY=0.5;exitDx=0;exitDy=0;entryX=1;entryY=0.5;entryDx=0;entryDy=0;" edge="1" parent="1" source="vYLM52S1xDxIUOLyzjok-48" target="vYLM52S1xDxIUOLyzjok-52">
          <mxGeometry relative="1" as="geometry" />
        </mxCell>
        <mxCell id="vYLM52S1xDxIUOLyzjok-54" style="edgeStyle=orthogonalEdgeStyle;rounded=0;orthogonalLoop=1;jettySize=auto;html=1;exitX=0;exitY=0.5;exitDx=0;exitDy=0;entryX=1;entryY=0.5;entryDx=0;entryDy=0;" edge="1" parent="1" source="zQ7XzDFX-CdMLgZaWSg_-19" target="zQ7XzDFX-CdMLgZaWSg_-159">
          <mxGeometry relative="1" as="geometry" />
        </mxCell>
        <mxCell id="vYLM52S1xDxIUOLyzjok-55" value="LLDP RECV" style="swimlane;fontStyle=1;align=center;verticalAlign=middle;childLayout=stackLayout;horizontal=1;startSize=30;horizontalStack=0;resizeParent=0;resizeLast=1;container=0;fontColor=#000000;collapsible=0;rounded=1;arcSize=30;strokeColor=#ff0000;fillColor=#ffffc0;swimlaneFillColor=#ffffc0;dropTarget=0;" vertex="1" parent="1">
          <mxGeometry y="-180" width="160" height="60" as="geometry" />
        </mxCell>
        <mxCell id="vYLM52S1xDxIUOLyzjok-56" value="levent_hardware_recv" style="text;html=1;strokeColor=none;fillColor=none;align=center;verticalAlign=middle;spacingLeft=4;spacingRight=4;whiteSpace=wrap;overflow=hidden;rotatable=0;fontColor=#000000;" vertex="1" parent="vYLM52S1xDxIUOLyzjok-55">
          <mxGeometry y="30" width="160" height="30" as="geometry" />
        </mxCell>
        <mxCell id="vYLM52S1xDxIUOLyzjok-57" value="" style="edgeStyle=orthogonalEdgeStyle;html=1;verticalAlign=bottom;endArrow=open;endSize=8;strokeColor=#ff0000;rounded=0;" edge="1" source="vYLM52S1xDxIUOLyzjok-55" parent="1">
          <mxGeometry relative="1" as="geometry">
            <mxPoint x="80" y="-60" as="targetPoint" />
          </mxGeometry>
        </mxCell>
        <mxCell id="vYLM52S1xDxIUOLyzjok-60" value="" style="endArrow=classic;html=1;rounded=0;" edge="1" parent="1">
          <mxGeometry relative="1" as="geometry">
            <mxPoint x="1240" y="1260" as="sourcePoint" />
            <mxPoint x="1340" y="1260" as="targetPoint" />
          </mxGeometry>
        </mxCell>
        <mxCell id="vYLM52S1xDxIUOLyzjok-61" value="MAC ADDRESS" style="shape=message;html=1;outlineConnect=0;" vertex="1" parent="vYLM52S1xDxIUOLyzjok-60">
          <mxGeometry width="20" height="14" relative="1" as="geometry">
            <mxPoint x="-10" y="-7" as="offset" />
          </mxGeometry>
        </mxCell>
        <mxCell id="vYLM52S1xDxIUOLyzjok-64" value="" style="edgeStyle=orthogonalEdgeStyle;rounded=0;orthogonalLoop=1;jettySize=auto;html=1;" edge="1" parent="1" source="vYLM52S1xDxIUOLyzjok-62" target="vYLM52S1xDxIUOLyzjok-63">
          <mxGeometry relative="1" as="geometry" />
        </mxCell>
        <mxCell id="vYLM52S1xDxIUOLyzjok-62" value="IPV4" style="html=1;whiteSpace=wrap;" vertex="1" parent="1">
          <mxGeometry x="1850" y="1170" width="110" height="50" as="geometry" />
        </mxCell>
        <mxCell id="vYLM52S1xDxIUOLyzjok-63" value="IPV6" style="whiteSpace=wrap;html=1;" vertex="1" parent="1">
          <mxGeometry x="2035" y="1165" width="120" height="60" as="geometry" />
        </mxCell>
        <mxCell id="vYLM52S1xDxIUOLyzjok-66" value="" style="endArrow=classic;html=1;rounded=0;entryX=1;entryY=0.5;entryDx=0;entryDy=0;" edge="1" parent="1">
          <mxGeometry width="50" height="50" relative="1" as="geometry">
            <mxPoint x="1850" y="930" as="sourcePoint" />
            <mxPoint x="1720" y="930" as="targetPoint" />
          </mxGeometry>
        </mxCell>
        <mxCell id="vYLM52S1xDxIUOLyzjok-67" value="第一个接口的MAC地址" style="edgeLabel;html=1;align=center;verticalAlign=middle;resizable=0;points=[];" vertex="1" connectable="0" parent="vYLM52S1xDxIUOLyzjok-66">
          <mxGeometry x="-0.4228" y="1" relative="1" as="geometry">
            <mxPoint as="offset" />
          </mxGeometry>
        </mxCell>
      </root>
    </mxGraphModel>
  </diagram>
</mxfile>
